<svg width="28" height="42" viewBox="0 0 28 42" fill="none" xmlns="http://www.w3.org/2000/svg">
<path fill-rule="evenodd" clip-rule="evenodd" d="M14 21C14 17.1341 17.1341 14 21 14C24.8659 14 28 17.1341 28 21C28 24.8659 24.8659 28 21 28C17.1341 28 14 24.8659 14 21Z" fill="#1ABCFE"/>
<path fill-rule="evenodd" clip-rule="evenodd" d="M0 35C0 31.1341 3.134 28 7 28H14V35C14 38.8659 10.8659 42 7 42C3.134 42 0 38.8659 0 35Z" fill="#0ACF83"/>
<path fill-rule="evenodd" clip-rule="evenodd" d="M14 0V14H21C24.8659 14 28 10.8659 28 7C28 3.134 24.8659 0 21 0H14Z" fill="#FF7262"/>
<path fill-rule="evenodd" clip-rule="evenodd" d="M0 7C0 10.8659 3.134 14 7 14H14V0H7C3.134 0 0 3.134 0 7Z" fill="#F24E1E"/>
<path fill-rule="evenodd" clip-rule="evenodd" d="M0 21C0 24.8659 3.134 28 7 28H14V14H7C3.134 14 0 17.1341 0 21Z" fill="#A259FF"/>
</svg>
