<svg width="42" height="42" viewBox="0 0 42 42" fill="none" xmlns="http://www.w3.org/2000/svg">
<path d="M0 15.1999C0 9.87949 0 7.21924 1.03543 5.18709C1.94623 3.39955 3.39955 1.94623 5.18709 1.03543C7.21924 0 9.87949 0 15.1999 0H26.8C32.1205 0 34.7808 0 36.8129 1.03543C38.6004 1.94623 40.0537 3.39955 40.9646 5.18709C42 7.21924 42 9.87949 42 15.1999V26.8C42 32.1205 42 34.7808 40.9646 36.8129C40.0537 38.6004 38.6004 40.0537 36.8129 40.9646C34.7808 42 32.1205 42 26.8 42H15.1999C9.87949 42 7.21924 42 5.18709 40.9646C3.39955 40.0537 1.94623 38.6004 1.03543 36.8129C0 34.7808 0 32.1205 0 26.8V15.1999Z" fill="#330000"/>
<path d="M20.3531 26.3943H13.8448L12.5206 30.6134C12.4838 30.7701 12.3395 30.8811 12.1825 30.8733H8.886C8.698 30.8733 8.63227 30.7674 8.68878 30.5555L14.3237 13.9106C14.3801 13.7372 14.4365 13.5398 14.4928 13.3182C14.5666 12.9326 14.6042 12.5408 14.6056 12.1479C14.5894 12.0318 14.6914 11.9293 14.8027 11.9456H19.2826C19.4138 11.9456 19.4888 11.9937 19.5079 12.09L25.9037 30.5844C25.96 30.7772 25.9037 30.8735 25.7347 30.8733H22.0718C21.9434 30.888 21.8207 30.8 21.7901 30.6711L20.3531 26.3943ZM14.8591 22.7532H19.3108C18.5794 20.2539 17.7539 17.7875 17.0849 15.2688C16.3631 17.7918 15.5756 20.3046 14.8591 22.7532Z" fill="#FF9A00"/>
<path d="M29.707 15.0087C29.4196 15.0206 29.1331 14.97 28.8659 14.8605C28.5989 14.751 28.3574 14.5848 28.1573 14.373C27.9578 14.1519 27.8027 13.8927 27.7012 13.61C27.5996 13.3274 27.5536 13.0269 27.5656 12.7259C27.5554 12.4278 27.6065 12.131 27.7157 11.8546C27.8251 11.5782 27.9899 11.3286 28.1996 11.122C28.4072 10.9176 28.6523 10.7574 28.9208 10.6508C29.1892 10.5441 29.4755 10.4931 29.7632 10.5007C30.4396 10.5007 30.9701 10.7078 31.3552 11.122C31.5496 11.3373 31.7006 11.5897 31.7998 11.8649C31.8988 12.1401 31.9441 12.4328 31.9327 12.7259C31.9445 13.028 31.897 13.3296 31.7929 13.6125C31.6889 13.8954 31.5304 14.154 31.327 14.373C31.1144 14.588 30.8606 14.7554 30.5819 14.8649C30.3031 14.9742 30.0052 15.0233 29.707 15.0087ZM27.7628 30.5844V16.7715C27.7628 16.5981 27.8377 16.5114 27.9883 16.5114H31.4539C31.6039 16.5114 31.679 16.5981 31.6792 16.7715V30.5844C31.6792 30.7773 31.604 30.8736 31.4539 30.8735H28.0165C27.8474 30.8735 27.7628 30.7772 27.7628 30.5844Z" fill="#FF9A00"/>
</svg>
