<svg width="40" height="42" viewBox="0 0 40 42" fill="none" xmlns="http://www.w3.org/2000/svg">
<path fill-rule="evenodd" clip-rule="evenodd" d="M31.023 1.42796L38.2653 6.56874L38.2768 6.5774L38.3484 6.63016C38.795 6.95979 39.2214 7.27446 39.5089 7.63532C39.8767 8.09723 40 8.59167 40 9.17771V36.6573C40 37.5987 39.8345 38.5412 39.2029 39.2645C38.564 39.9964 37.6011 40.3318 36.4055 40.4177L36.4008 40.4179L10.6919 41.985L10.6864 41.9852C9.84132 42.0257 9.09791 41.9944 8.4267 41.7472C7.72604 41.489 7.19664 41.0315 6.70529 40.4011L6.70268 40.398L1.4949 33.5799L1.49177 33.5754C0.498648 32.2406 0 31.1221 0 29.7676V4.83634C0 4.01751 0.179336 3.15826 0.715519 2.46567C1.26917 1.74998 2.11163 1.32981 3.1926 1.23585L3.20772 1.23454L25.326 0.0944745C26.6794 -0.0223137 27.6558 -0.0566942 28.5285 0.143027C29.4301 0.349571 30.1467 0.786543 31.023 1.42796ZM9.64087 37.0717V37.9378C9.64087 38.4375 9.76338 38.5511 9.80066 38.5813C9.87781 38.643 10.1142 38.7524 10.75 38.7173L36.1513 37.3077C36.6539 37.2799 36.7394 37.1373 36.7633 37.0975L36.7647 37.0954C36.8402 36.9704 36.8913 36.7261 36.8913 36.2143V11.5266C36.8913 11.0975 36.8043 10.9445 36.7816 10.9159L36.7803 10.9141L36.7798 10.9133L36.7782 10.9127C36.7771 10.9124 36.7761 10.9121 36.7751 10.9117C36.7613 10.9067 36.7065 10.8912 36.5864 10.902L36.5715 10.9033L10.0824 12.3908C9.91978 12.4055 9.82881 12.4336 9.78215 12.4543C9.74514 12.4706 9.73706 12.4816 9.73497 12.4848L9.73445 12.4853C9.71725 12.5076 9.64061 12.6391 9.64061 13.0945L9.64087 37.0717ZM12.0085 9.06749L34.7054 7.88491L29.2242 3.84981L29.214 3.84167C28.8859 3.58447 28.5606 3.3551 28.1401 3.19606C27.7262 3.03938 27.177 2.93545 26.4017 3.00342L26.3887 3.00473L3.70871 4.29019H3.7061C3.6279 4.29487 3.55012 4.30504 3.47333 4.32063L7.94709 8.52396C8.47806 8.95595 8.75749 9.08717 9.07758 9.14517C9.47848 9.21787 9.99511 9.189 11.0904 9.11499L12.0085 9.05279V9.06749ZM3.08573 8.12636V30.1437C3.08573 30.2849 3.13134 30.4222 3.21554 30.5347L6.64951 35.1181V11.8476C6.64956 11.7532 6.62913 11.6599 6.58964 11.5742C6.55015 11.4886 6.49257 11.4127 6.4209 11.3518L6.40005 11.334L3.08573 8.12636ZM31.725 17.3282C31.8426 17.8636 31.725 18.3995 31.193 18.4607L30.3086 18.6373V31.7283C29.5404 32.1446 28.8332 32.3824 28.2423 32.3824C27.2982 32.3824 27.062 32.0847 26.3553 31.1935L26.3546 31.1927L20.5699 22.0294V30.8948L22.3998 31.3121C22.3998 31.3121 22.3998 32.3834 20.9234 32.3834L16.8531 32.6212C16.7345 32.3824 16.8531 31.7877 17.2655 31.6693L18.3285 31.3725V19.6503L16.8531 19.5299C16.7348 18.9945 17.0296 18.2211 17.8567 18.161L22.2238 17.8649L28.2425 27.1468V18.9354L26.7085 18.7578C26.5899 18.1019 27.062 17.6253 27.6516 17.5673L31.725 17.3282Z" fill="white"/>
</svg>
