<svg width="42" height="42" viewBox="0 0 42 42" fill="none" xmlns="http://www.w3.org/2000/svg">
<path d="M0 15.1999C0 9.87949 0 7.21924 1.03543 5.18709C1.94623 3.39955 3.39955 1.94623 5.18709 1.03543C7.21924 0 9.87949 0 15.1999 0H26.8C32.1205 0 34.7808 0 36.8129 1.03543C38.6004 1.94623 40.0537 3.39955 40.9646 5.18709C42 7.21924 42 9.87949 42 15.1999V26.8C42 32.1205 42 34.7808 40.9646 36.8129C40.0537 38.6004 38.6004 40.0537 36.8129 40.9646C34.7808 42 32.1205 42 26.8 42H15.1999C9.87949 42 7.21924 42 5.18709 40.9646C3.39955 40.0537 1.94623 38.6004 1.03543 36.8129C0 34.7808 0 32.1205 0 26.8V15.1999Z" fill="#001E36"/>
<path d="M9 30.7743V12.3051C9 12.1795 9.0525 12.1077 9.175 12.1077C10.9834 12.1077 12.7911 12 14.6 12C17.5353 12 20.7135 13.0036 21.8276 16.0743C22.0901 16.8282 22.23 17.5999 22.23 18.4077C22.23 19.9513 21.8801 21.2256 21.18 22.2307C19.2246 25.0384 15.8355 24.9948 12.7976 24.9948V30.7564C12.8213 30.927 12.6759 31.0077 12.5351 31.0077H9.21C9.07001 31.0077 9 30.9358 9 30.7743ZM12.8149 15.5718V21.6025C14.0196 21.6907 15.28 21.7003 16.4374 21.3154C17.7153 20.9467 18.4151 19.8408 18.4151 18.5154C18.4505 17.386 17.8352 16.3024 16.7876 15.8949C15.6441 15.4194 14.0493 15.3909 12.8149 15.5718Z" fill="#31A8FF"/>
<path d="M33.1452 20.4111C32.6157 20.132 32.0517 19.9278 31.4687 19.8042C30.7196 19.628 27.7649 19.0106 27.7637 20.5556C27.7899 21.4181 29.1591 21.8406 29.7641 22.0871C31.8879 22.8162 34.2912 24.1196 34.244 26.7396C34.3089 30.0012 31.1487 31.3052 28.4399 31.3055C27.0297 31.32 25.5606 31.1016 24.27 30.4962C24.1467 30.431 24.0675 30.2916 24.0728 30.1494V27.0285C24.0588 26.9034 24.1932 26.7941 24.2982 26.8841C25.5627 27.6488 27.0615 28.0202 28.5245 28.04C29.1702 28.04 30.45 27.9774 30.4404 27.0285C30.4404 26.118 28.9094 25.6994 28.299 25.4681C27.4143 25.1523 26.5755 24.7148 25.8056 24.1677C24.7295 23.4002 24.0545 22.1696 24.0728 20.8157C24.0665 17.7446 26.9754 16.3661 29.5952 16.3655C30.8198 16.3553 32.135 16.446 33.275 16.9434C33.4389 16.9916 33.4728 17.1644 33.4722 17.319V20.2377C33.4826 20.4189 33.2814 20.4806 33.1452 20.4111Z" fill="#31A8FF"/>
</svg>
