<svg width="42" height="42" viewBox="0 0 42 42" fill="none" xmlns="http://www.w3.org/2000/svg">
<path d="M37.962 19.384C40.1922 19.384 42.0001 17.576 42.0001 15.3458C42.0001 13.1156 40.192 11.3077 37.9618 11.3077C35.7314 11.3077 33.9232 13.1158 33.9232 15.3462V19.384H37.962ZM26.6539 19.384C28.8843 19.384 30.6924 17.5759 30.6924 15.3455V4.03846C30.6924 1.80808 28.8843 0 26.6539 0C24.4236 0 22.6155 1.80808 22.6155 4.03846V15.3455C22.6155 17.5759 24.4236 19.384 26.6539 19.384Z" fill="#2EB67D"/>
<path d="M4.03812 22.616C1.80792 22.616 0 24.4239 0 26.6541C0 28.8843 1.8081 30.6922 4.03828 30.6922C6.26866 30.6922 8.07692 28.8841 8.07692 26.6538V22.616H4.03812ZM15.3462 22.616C13.1158 22.616 11.3077 24.4241 11.3077 26.6544V37.9615C11.3077 40.1918 13.1158 41.9999 15.3462 41.9999C17.5765 41.9999 19.3846 40.1918 19.3846 37.9615V26.6544C19.3846 24.4241 17.5765 22.616 15.3462 22.616Z" fill="#E01E5A"/>
<path d="M22.616 37.9618C22.616 40.192 24.4239 42 26.6541 42C28.8843 42 30.6922 40.1919 30.6922 37.9617C30.6922 35.7313 28.8841 33.923 26.6538 33.923H22.616V37.9618ZM22.616 26.6538C22.616 28.8842 24.4241 30.6923 26.6544 30.6923H37.9615C40.1918 30.6923 41.9999 28.8842 41.9999 26.6538C41.9999 24.4235 40.1918 22.6154 37.9615 22.6154H26.6544C24.4241 22.6154 22.616 24.4235 22.616 26.6538Z" fill="#ECB22E"/>
<path d="M19.384 4.03812C19.384 1.80792 17.576 0 15.3458 0C13.1156 0 11.3077 1.8081 11.3077 4.03828C11.3077 6.26868 13.1158 8.07692 15.3462 8.07692H19.384V4.03812ZM19.384 15.3462C19.384 13.1158 17.5759 11.3077 15.3455 11.3077H4.03846C1.80808 11.3077 0 13.1158 0 15.3462C0 17.5765 1.80808 19.3846 4.03846 19.3846H15.3455C17.5759 19.3846 19.384 17.5765 19.384 15.3462Z" fill="#36C5F0"/>
</svg>
