<svg xmlns="http://www.w3.org/2000/svg" viewBox="0 0 1273.1 1273.33"><defs><style>.cls-1{fill:#b5b5b6;}.cls-2{fill:#c8c8c8;}.cls-3{fill:#fff;}</style></defs><g id="Layer_2" data-name="Layer 2"><g id="Layer_1-2" data-name="Layer 1"><path class="cls-1" d="M0,636.58C-1,285.05,286.83-1.21,638.54,0c345.85,1.2,629.7,279.68,634.5,626.79,4.94,356.83-279,641.2-625.72,646.46C280.79,1278.81-1.46,982.05,0,636.58ZM637.07,23c-338.77-.9-614.14,274.67-614,613.93.15,335.29,271.13,616.85,620.61,613.36,334.48-3.34,607.9-272.81,606.86-616C1249.5,290.57,971.06,22.48,637.07,23Z"/><path d="M637.07,23c334-.48,612.43,267.61,613.47,611.32,1,343.16-272.38,612.63-606.86,616C294.2,1253.74,23.22,972.18,23.07,636.89,22.93,297.63,298.3,22.06,637.07,23ZM31,635.89c-2.88,328.59,267.56,613.37,618.15,606.95,327.54-6,599.11-274.79,593.87-616.64-5.07-330.43-274.88-595-604.55-596C301.54,29.24,29.3,304.28,31,635.89Z"/><path class="cls-1" d="M31,635.89C29.3,304.28,301.54,29.24,638.48,30.23c329.67,1,599.48,265.54,604.55,596,5.24,341.85-266.33,610.64-593.87,616.64C298.57,1249.26,28.13,964.48,31,635.89Zm426.77,135c3.09,1.94,5.8,5.13,8.07,4.84,11.91-1.54,21.32,5.76,32,8.12,1.93.42,4.67.09,5.68,1.27,6.14,7.13,14.14,8,22.69,7.74a4.85,4.85,0,0,1,2.83.84c5,3.49,10.56,2.91,16.22,3.4s11,4.22,16.64,5.08c4.31.65,7,2.54,10.12,5.12a25,25,0,0,0,11.44,5.17c5.15.8,10.35-.22,15.08,3.59,1.72,1.38,5.8.61,8.48-.21s5.1-2.94,8.06-4.77c4.43,4.73,9.41,9.16,16.31,7.18,5.17-1.47,9.37.56,14.1,1.22,9.05,1.26,17.83,3.06,26.74,4.82,6.92,1.37,13.94,2.77,21.23,4.5,1.33,3.58,2.67,7.32,4.08,11,2.49,6.53,4.43,13.35,7.67,19.48,5.2,9.83,13,11.07,22,4.39.39-.3,1.15-.12,1-.1,3.62,3.47,6.47,8.4,10.21,9.22,4.27.93,9.35-1.8,14.3-3,2.19,3.27,4.13,6.81,6.68,9.83,4.63,5.46,10.79,5,15-.87,1.7-2.36,3.21-4.86,5.15-7.82,2.91,3.43,5.13,6.25,7.56,8.88,10.41,11.29,12.83,11.36,24.21,1,.39-.35,1.15-.28,2.15-.5,2.42,2.87,5.2,5.75,7.5,9,8.09,11.36,18.64,19.81,30.69,26.58,10.2,5.72,12.58,5,17.25-5.93,2.28,1.41,4.42,2.94,6.75,4.12,5.62,2.87,11.14,6.09,17,8.23,8.4,3,11.58.54,12.12-8.36.16-2.59.4-5.16.66-8.52,2.74,1.24,4.78,2.19,6.84,3.09,5.48,2.4,10.85,5.13,16.49,7.07,6.8,2.34,10.22-.19,10.55-7.29.14-2.92-.26-5.88-.45-9.4,5.3,2.21,10,4.6,15,6.17,8.1,2.55,11.86-.78,9.85-8.85-1.41-5.62-3.86-11-6.25-17.57,3.68,1.81,6.17,3.35,8.87,4.31,8.09,2.92,16.09,6.54,24.47,8.13,8.91,1.69,13.32-3.84,10.69-12.53a25.6,25.6,0,0,0-6.66-10.85c-8.5-7.94-17.64-15.17-26.41-22.82-7-6.11-14.4-11.91-20.64-18.74-12.79-14-24.89-28.64-37.31-43-15-17.35-30.28-34.54-45.17-52-18.35-21.54-36.29-43.44-54.7-64.92-13.62-15.91-29.15-29.76-50.37-34-17.88-3.6-36.12-5.46-54.22-8-8.56-1.21-17.24-1.77-25.71-3.45-15.44-3.07-21.73-21.29-11.74-32.41a199.17,199.17,0,0,0,19.12-25.56c6.12-9.48,13.64-17.32,23.29-22.87,18.75-10.79,37.54-21.54,56.69-31.6,27.75-14.57,55.37-29,77.88-51.65a117.48,117.48,0,0,1,60.7-32.76A102.17,102.17,0,0,0,922.53,419c4.93-1.91,10.09-3.9,14.21-7.07a116.13,116.13,0,0,1,38.16-19c22.61-6.74,45.45-12.74,68.16-19.13a60.71,60.71,0,0,0,6.81-2.82l1.44-2.83a31.53,31.53,0,0,0-5.27-2.41c-7.67-2-15.3-4.67-23.1-5.36-19.69-1.74-39.24.87-58.66,4-9.21,1.49-18.18.87-26.27-3.47-11.07-5.95-22.33-5.47-34-3.09-10.64,2.17-19.87,6.23-27.68,14.5-8.87,9.38-18.89,17.77-29,25.9q-22.93,18.48-46.68,35.95c-21.49,15.79-45.08,24-72.18,18.31-8.77-1.83-17.68-3-26.52-4.55-29.85-5.19-60.45-3.52-90.17-9.88a12.44,12.44,0,0,0-3-.06c-15.64.52-31.27,1.1-46.91,1.56-8.32.25-16.67.74-25,.32-11.47-.58-21.72-4.09-27.12-15.5-16.21-34.24-24.8-70.26-24.12-108.21.18-10.23,1.57-20.6,7.79-28.72,8.24-.84,16-.91,23.35-2.57,8.8-2,9.48-4.09,7-12.73-.26-.9-.37-1.85-.8-4.07,5.8-.57,11.32-1.07,16.83-1.64,7.61-.8,11.63-5.84,9.53-13.08-.95-3.28-3.7-6.1-5.92-8.91-1.44-1.82-3.39-3.22-5.61-5.27,5.88,0,10.53.25,15.14,0,9.83-.65,12.29-4,9.84-13.61-1.11-4.37-2.81-8.59-4.35-13.18,7.4-2.27,16.46-.5,17.57-10.93,1-9-6.17-13.38-10.15-17.75-.39-5.37.6-10-1.18-13-7.72-13.1-19.4-16.9-31.8-8.38a355.08,355.08,0,0,0-37.66,29.32c-25.17,22.77-51.62,44.12-77.06,66.61-13.46,11.9-26.06,24.77-35.81,40.13s-20.15,30.58-29.7,46.19c-3.21,5.23-6,11.41-6.54,17.37a42,42,0,0,1-3.54,12.93c-1.37,3.28-1.44,7.1-2.11,10.67-1.39,7.38-1.4,15.46-4.61,21.94-2.94,5.95-5.55,11.09-4,17.75a5.51,5.51,0,0,1-.82,3.73c-4.27,6.8-4.74,13.64.17,21.15-7.54,5.39-7.32,12.88-5.93,20.77.45,2.55,1.07,5.7,0,7.78-3.55,7-1,12.85,1.3,16.2-.81,7.9-1.41,13.36-1.9,18.83-.17,1.94.56,4.23-.23,5.8-3.16,6.32-2.83,12.14,1.29,17.86.74,1,1.54,2.51,1.35,3.61-1,6-.1,11.25,4.33,15.64-1.64,8.28,1.1,15.64,4.2,23.13,1.83,4.42,2.14,9.46,3.25,14.19.44,1.88,1.63,3.65,1.76,5.52.44,6.56.67,13.15.77,19.72a11.31,11.31,0,0,1-1.07,5.45c-7.63,13.87-5.91,29.4-7.79,44.26-.35,2.77.72,6,2.05,8.62,1.72,3.33,1.3,6.11.06,9.35a163.73,163.73,0,0,0-9.87,42.65,12.13,12.13,0,0,1-3.54,6.61c-28.18,28.45-59.34,53.5-90.09,79-3.82,3.17-7.86,6.39-10.7,10.37-4,5.67-9.34,7.87-15.83,9.1a186.19,186.19,0,0,0-22.16,5.72c-6.39,2.05-11.07,6.29-11.69,13.5-.38,4.34-2.92,6.55-6.62,7.81-5,1.71-10.17,3.15-15.2,4.89-3.76,1.3-7.1,3.77-5.48,8.07,2.63,7,6.56,13.84,14.85,14.66,10.84,1.07,21.86,1.82,32.67,1,5.94-.48,12.07-3.82,17.26-7.19,5.5-3.58,10.36-8.38,14.81-13.27,5-5.52,10.36-10.05,17.54-12.68a48.67,48.67,0,0,0,12.82-7.57c20.75-16.22,42.05-31.6,65-44.65a147,147,0,0,0,20.68-13.92c5.88-4.83,11.28-9.23,19.53-6.88,1.45.41,3.25-.41,4.89-.7,8.82-1.57,17.6-3.42,26.48-4.64a36.82,36.82,0,0,0,17.23-7.21,65.75,65.75,0,0,1,14.7-8.13c7.66-3,9.31-2.34,13.92,4.52,3.28,4.88,7.49,6.29,12.89,5.22C451.73,772.4,454.62,771.62,457.78,770.87Zm-84.2,291.37H362.5c-15.66,0-31.32-.07-47,.1-8.29.09-12.54,4.85-12.46,13.31.1,9.95,2.71,12.84,12,12.92,14.66.11,29.32.08,44,.14,35.65.15,71.3.36,107,.45,11,0,15.23-4.47,15.53-16,.21-8.4-2.83-11-14.7-11.46-18.31-.72-36.62-1.1-54.93-1.7-2.55-.08-5.08-.57-7.82-.9-.4-7.79-2-14.92.75-22.59,3.91,0,7.55.13,11.18,0,12.3-.54,24.71-.31,36.86-2,17.8-2.49,27.1-15.35,25.32-33.3a65.46,65.46,0,0,0-2.86-13.63c-5.65-17.43-17.56-25.82-35.92-25.45-32.3.66-64.61,1.29-96.9,2.27-6.9.21-13.77,1.83-20.64,2.91-11.57,1.83-18.23,8.91-20.79,20-1,4.19-2.12,8.53-2,12.76.56,16,5.7,29.95,22.24,35.42,7.31,2.41,15.66,1.94,23.56,2.23,9.24.34,18.5.08,28.68.08Zm314.79,5.9c.19,3,.4,4.94.44,6.92.32,17.32.74,17.72,18.1,17.13,1,0,2,0,3,0,4.72-.21,7.45-2.39,7.47-7.41,0-11.66.26-23.33.09-35-.09-6.09-2.2-8.51-8.22-9.2a106.91,106.91,0,0,0-15-.23q-71.44,1.85-142.89,3.78c-12.53.33-14.06,1.88-14.33,14.7,0,.66,0,1.33,0,2,.15,8.46,3,11.07,11.73,10.63,4-.21,8-.53,12-.64,32.64-.9,65.28-1.83,97.92-2.61C668.25,1068,677.83,1068.14,688.37,1068.14Zm117-6.87a49.7,49.7,0,0,1,0-6.39c1.54-11.13-1-14.23-12.22-14.31a59.6,59.6,0,0,0-10.92.88c-4.31.79-5.93,3.65-5.25,8.08.85,5.53,1.42,11.1,2,16.67.48,4.63,1,9.28,1.15,13.93.22,5.45,3.15,7.73,8.29,7.8,1.66,0,3.33.06,5,0l87.86-2.59c21-.62,41.93-1.35,62.9-1.76,5.71-.11,8.38-2.66,9.58-8,2.75-12.2-1.35-17.52-13.82-17.52h-1c-32.28,1.06-64.55,2.22-96.83,3.12C830.22,1061.55,818.28,1061.27,805.38,1061.27Zm-119.71-50.62c.24,5,.47,8.6.58,12.21.31,9.89,1.76,11.39,11.75,11.68a68.36,68.36,0,0,0,8-.16c4.68-.39,7.26-3,7.29-7.77q.25-32.41.46-64.84c0-3.61-1.33-7.15-5-7.73-5.81-.92-11.93-1.76-17.64-.87-6.57,1-8.53,5-7.13,11.78,1.14,5.56,1.71,11,.2,16.51H669.23c0-6,.24-11.31-.07-16.57-.27-4.66-2.14-8.31-7.58-8.93-2.28-.26-4.47-1.26-6.74-1.68-9.53-1.77-13.87,1.61-14,11.33-.14,19,0,37.92,0,56.88a24,24,0,0,0,.13,4c.84,5.17,3.46,7.65,9.57,8.28,6.55.67,13.57,2,18.11-4.69,1-1.45.64-3.87.69-5.85.09-3.87,0-7.74,0-12.24ZM590.3,970.23l-27.13,2c1.64-12.59-3.19-17.55-15.45-16.63-.66,0-1.32.17-2,.25-9.84,1.21-10.7,2-10.67,11.7.07,17.64.29,35.29.48,52.94.12,12,3.43,15.52,15.42,15.51,16.64,0,33.29-.28,49.92-.69,13-.32,16.14-4.07,16.1-17.14-.06-17.92.14-35.85.48-53.77.11-5.21-2.21-8.07-6.85-9.62C599.28,951,591.78,956.19,590.3,970.23ZM846.08,1033c2.29-.19,3.91-.4,5.53-.43,9.65-.23,19.31-.39,29-.64,4.19-.11,8-1,9.4-5.74,3.3-10.93-1.57-17.88-13-17.8q-44.43.3-88.87,1c-9.65.12-11,1.69-11,11.17.1,9.11.9,10,10.35,10.62,2.66.18,5.33.11,8,.24,7.55.38,15.1.8,23.07,1.23.27,4.76,0,8.78.88,12.56.5,2.26,2.63,5.88,4.08,5.91,6.21.12,12.78.15,18.56-1.76,5.61-1.84,2.61-8.12,3.38-12.45C845.64,1035.93,845.78,1035,846.08,1033Zm-18.32-31.67v.71c9.3,0,18.62.33,27.9-.13A51.41,51.41,0,0,0,871.15,999c11.36-4.31,16.65-14.53,14.48-26.37-2.25-12.37-12.16-22.4-23.07-22.5-20.28-.17-40.57-.19-60.84.27-12.35.28-21.1,8.78-22.82,21a30.73,30.73,0,0,0,5.09,21.8c3.55,5.44,8.08,8.43,14.84,8.24C808.47,1001.16,818.12,1001.36,827.76,1001.36Zm97.62-19.83c-6.08,0-10.69-.16-15.28,0-6.21.27-9.14,2.44-10.81,8.22a26.72,26.72,0,0,0-.92,7.87c.18,7.44,2,9.21,9.53,9.6,5.55.3,11.1.47,17.19.72,0,8.15-.1,15.4,0,22.65.16,9,2.11,10.92,11.23,11.41a73.08,73.08,0,0,0,8-.1c4.37-.25,6.58-2.55,6.59-7,0-6.31.14-12.62.24-18.93.29-18.94.74-37.87.73-56.8,0-3-1.42-7.93-3.3-8.54-4.78-1.56-10.43-2.31-15.28-1.26-5.25,1.13-7.24,6-7.1,11.73C926.34,967.35,925.73,973.61,925.38,981.53Z"/><path d="M457.78,770.87c-3.16.75-6,1.53-9,2.1-5.4,1.07-9.61-.34-12.89-5.22-4.61-6.86-6.26-7.5-13.92-4.52a65.75,65.75,0,0,0-14.7,8.13,36.82,36.82,0,0,1-17.23,7.21c-8.88,1.22-17.66,3.07-26.48,4.64-1.64.29-3.44,1.11-4.89.7-8.25-2.35-13.65,2.05-19.53,6.88a147,147,0,0,1-20.68,13.92c-22.94,13-44.24,28.43-65,44.65a48.67,48.67,0,0,1-12.82,7.57c-7.18,2.63-12.51,7.16-17.54,12.68-4.45,4.89-9.31,9.69-14.81,13.27-5.19,3.37-11.32,6.71-17.26,7.19-10.81.86-21.83.11-32.67-1-8.29-.82-12.22-7.68-14.85-14.66-1.62-4.3,1.72-6.77,5.48-8.07,5-1.74,10.16-3.18,15.2-4.89,3.7-1.26,6.24-3.47,6.62-7.81.62-7.21,5.3-11.45,11.69-13.5a186.19,186.19,0,0,1,22.16-5.72c6.49-1.23,11.79-3.43,15.83-9.1,2.84-4,6.88-7.2,10.7-10.37,30.75-25.52,61.91-50.57,90.09-79a12.13,12.13,0,0,0,3.54-6.61,163.73,163.73,0,0,1,9.87-42.65c1.24-3.24,1.66-6-.06-9.35-1.33-2.57-2.4-5.85-2.05-8.62,1.88-14.86.16-30.39,7.79-44.26a11.31,11.31,0,0,0,1.07-5.45c-.1-6.57-.33-13.16-.77-19.72-.13-1.87-1.32-3.64-1.76-5.52-1.11-4.73-1.42-9.77-3.25-14.19-3.1-7.49-5.84-14.85-4.2-23.13-4.43-4.39-5.36-9.68-4.33-15.64.19-1.1-.61-2.59-1.35-3.61-4.12-5.72-4.45-11.54-1.29-17.86.79-1.57.06-3.86.23-5.8.49-5.47,1.09-10.93,1.9-18.83-2.26-3.35-4.85-9.19-1.3-16.2,1-2.08.42-5.23,0-7.78-1.39-7.89-1.61-15.38,5.93-20.77-4.91-7.51-4.44-14.35-.17-21.15a5.51,5.51,0,0,0,.82-3.73c-1.53-6.66,1.08-11.8,4-17.75,3.21-6.48,3.22-14.56,4.61-21.94.67-3.57.74-7.39,2.11-10.67a42,42,0,0,0,3.54-12.93c.53-6,3.33-12.14,6.54-17.37,9.55-15.61,19.89-30.74,29.7-46.19s22.35-28.23,35.81-40.13c25.44-22.49,51.89-43.84,77.06-66.61A355.08,355.08,0,0,1,533,162.19c12.4-8.52,24.08-4.72,31.8,8.38,1.78,3,.79,7.67,1.18,13,4,4.37,11.11,8.72,10.15,17.75-1.11,10.43-10.17,8.66-17.57,10.93,1.54,4.59,3.24,8.81,4.35,13.18,2.45,9.58,0,13-9.84,13.61-4.61.3-9.26,0-15.14,0,2.22,2.05,4.17,3.45,5.61,5.27,2.22,2.81,5,5.63,5.92,8.91,2.1,7.24-1.92,12.28-9.53,13.08-5.51.57-11,1.07-16.83,1.64.43,2.22.54,3.17.8,4.07,2.49,8.64,1.81,10.75-7,12.73-7.38,1.66-15.11,1.73-23.35,2.57-6.22,8.12-7.61,18.49-7.79,28.72-.68,37.95,7.91,74,24.12,108.21,5.4,11.41,15.65,14.92,27.12,15.5,8.29.42,16.64-.07,25-.32,15.64-.46,31.27-1,46.91-1.56a12.44,12.44,0,0,1,3,.06c29.72,6.36,60.32,4.69,90.17,9.88,8.84,1.54,17.75,2.72,26.52,4.55,27.1,5.67,50.69-2.52,72.18-18.31q23.74-17.44,46.68-35.95c10.08-8.13,20.1-16.52,29-25.9,7.81-8.27,17-12.33,27.68-14.5,11.65-2.38,22.91-2.86,34,3.09,8.09,4.34,17.06,5,26.27,3.47,19.42-3.16,39-5.77,58.66-4,7.8.69,15.43,3.4,23.1,5.36a31.53,31.53,0,0,1,5.27,2.41l-1.44,2.83a60.71,60.71,0,0,1-6.81,2.82c-22.71,6.39-45.55,12.39-68.16,19.13a116.13,116.13,0,0,0-38.16,19c-4.12,3.17-9.28,5.16-14.21,7.07a102.17,102.17,0,0,1-16.23,4.91,117.48,117.48,0,0,0-60.7,32.76c-22.51,22.67-50.13,37.08-77.88,51.65-19.15,10.06-37.94,20.81-56.69,31.6-9.65,5.55-17.17,13.39-23.29,22.87a199.17,199.17,0,0,1-19.12,25.56c-10,11.12-3.7,29.34,11.74,32.41,8.47,1.68,17.15,2.24,25.71,3.45,18.1,2.56,36.34,4.42,54.22,8,21.22,4.28,36.75,18.13,50.37,34,18.41,21.48,36.35,43.38,54.7,64.92,14.89,17.48,30.12,34.67,45.17,52,12.42,14.33,24.52,29,37.31,43,6.24,6.83,13.63,12.63,20.64,18.74,8.77,7.65,17.91,14.88,26.41,22.82a25.6,25.6,0,0,1,6.66,10.85c2.63,8.69-1.78,14.22-10.69,12.53-8.38-1.59-16.38-5.21-24.47-8.13-2.7-1-5.19-2.5-8.87-4.31,2.39,6.6,4.84,12,6.25,17.57,2,8.07-1.75,11.4-9.85,8.85-5-1.57-9.71-4-15-6.17.19,3.52.59,6.48.45,9.4-.33,7.1-3.75,9.63-10.55,7.29-5.64-1.94-11-4.67-16.49-7.07-2.06-.9-4.1-1.85-6.84-3.09-.26,3.36-.5,5.93-.66,8.52-.54,8.9-3.72,11.4-12.12,8.36-5.9-2.14-11.42-5.36-17-8.23-2.33-1.18-4.47-2.71-6.75-4.12-4.67,10.92-7,11.65-17.25,5.93-12-6.77-22.6-15.22-30.69-26.58-2.3-3.22-5.08-6.1-7.5-9-1,.22-1.76.15-2.15.5-11.38,10.35-13.8,10.28-24.21-1-2.43-2.63-4.65-5.45-7.56-8.88-1.94,3-3.45,5.46-5.15,7.82-4.22,5.87-10.38,6.33-15,.87-2.55-3-4.49-6.56-6.68-9.83-5,1.2-10,3.93-14.3,3-3.74-.82-6.59-5.75-10.21-9.22.17,0-.59-.2-1,.1-9,6.68-16.75,5.44-22-4.39-3.24-6.13-5.18-12.95-7.67-19.48-1.41-3.71-2.75-7.45-4.08-11-7.29-1.73-14.31-3.13-21.23-4.5-8.91-1.76-17.69-3.56-26.74-4.82-4.73-.66-8.93-2.69-14.1-1.22-6.9,2-11.88-2.45-16.31-7.18-3,1.83-5.32,3.93-8.06,4.77s-6.76,1.59-8.48.21c-4.73-3.81-9.93-2.79-15.08-3.59a25,25,0,0,1-11.44-5.17c-3.15-2.58-5.81-4.47-10.12-5.12-5.68-.86-11-4.59-16.64-5.08s-11.25.09-16.22-3.4a4.85,4.85,0,0,0-2.83-.84c-8.55.3-16.55-.61-22.69-7.74-1-1.18-3.75-.85-5.68-1.27-10.73-2.36-20.14-9.66-32-8.12C463.58,776,460.87,772.81,457.78,770.87ZM480,341.33l-4.88,9.17,6.23,3.86c-.59-5.34-1-9.13-1.42-12.91-1.8-18.35-1.46-36.53,5-54.75H470.2c-5.18,3.93-8.8,8.06-13.34,9.8-6.7,2.58-14.43,2.74-17.46,11.07-.38,1-1.94,2-3.14,2.33-9.2,2.61-17.8,6.16-24.19,13.71-.37.44-1.4.27-1.83.69-4.32,4.23-10.1,7.8-12.51,12.95-4.44,9.48-6.44,12.29-16.63,11.95-5.59-.19-11.14-1.51-16.69-2.48-3.71-.64-6.6-.42-6.72,4.27,6,3.45,15-2.73,19.77,7-3.16.2-5.34.43-7.52.46-4,.07-8-.29-12,.11-3,.31-6,1.56-4.45,6.63,3.74,0,7.63.11,11.51,0s8-.83,11.93-.65c2.73.13,5.22,1.49,3.72,5.75-7.37.49-14.95.86-22.51,1.51-8.19.69-9.27,2-10,11.19,18.95-2.45,26.95-1.33,31.24,5.17a77.86,77.86,0,0,1-7.86.74c-4.33,0-8.67-.68-13-.5-9.73.39-15,6.9-14,17.85,4.54,0,9.21-.31,13.81.1,4.23.37,10.26-2.36,11.81,6.38H357.84c-4,0-8-.53-11.95,0-7.8,1.06-8.78,3.28-5.73,11.68,4.15.29,8.45.79,12.75.82,4.47,0,9.2-1.38,13.58,3.61-2.18,1.1-3.67,2.49-5.2,2.53-6,.14-12-.38-17.93-.2-7.87.25-10.67,4.69-7.9,12.11a22.63,22.63,0,0,0,2.42,3.95c20.59-1.39,20.59-1.39,23.83,4.15-3.23.4-6,.77-8.81,1.09-3.31.38-6.65.53-9.92,1.11-11.71,2.05-13.47,5.2-9.72,17.63,5.14-.81,10.33-2,15.57-2.33,4.81-.3,10.09-3.58,14.95,1-2.2,4.71-6.27,3.94-9.64,4.6-5.86,1.15-11.83,1.91-17.6,3.42-4.36,1.14-6.76,4.69-5.86,9.15,1,4.79,4.75,5.91,9.28,5.25,5.6-.82,11.2-1.66,16.83-2.17,3.1-.28,6.77-1.49,8.61,2.56-.47,4-3.52,3.33-6,3.64-6.6.84-13.3,1.27-19.77,2.71-7.88,1.77-9.49,5.62-6.83,13.62,9.6.13,19.51-2.64,28.47,3.79a8.83,8.83,0,0,1-5.7,2.55c-4.65,0-9.34-.79-13.95-.42a22.81,22.81,0,0,0-9.2,3.08c-3.2,1.83-4.22,5.19-2.78,8.71s3.71,5.23,7.83,4.34a103,103,0,0,1,14.8-2.2c3.46-.24,7.44,0,7,5.75-6.61.85-12.86,1.42-19,2.52-5.3,1-7.71,3.76-6.49,7,1.49,3.93,4.21,5.62,8.63,4.32a125.32,125.32,0,0,1,14.57-3.44c1.49-.25,3.24,1,4.87,1.62l.33,2.07a65.61,65.61,0,0,1-7.47,3.38A101.82,101.82,0,0,1,344,558.26c-3.81.77-6.2,3.34-6.19,6.81,0,2.4,2.12,4.8,3.23,7.07,22-8.24,22-8.24,27-4.92-1.65,1.25-3,2.7-4.65,3.41-4.27,1.83-8.72,3.26-13,5-9.49,3.8-10.27,7.56-3.43,16.07,8.78-2.82,15.05-11.68,25.3-11.69.89,5.19-2.53,6-4.93,7.51-5.34,3.39-10.78,6.63-16.11,10a9.43,9.43,0,0,0-4.6,10.24c.44,2.56.9,5.12,1.62,9.25,8.54-8.14,16.23-16.48,28.7-15.53-1.16,2.48-2.65,4.79-4.74,5.62-10.66,4.28-17.65,12.9-25.22,20.79-2.89,3-5.55,6.49-4.22,11.81,10.87-4.72,21.68-8.25,29.73-16.87,1.72-1.84,3.86-4.1,7.39-.73a38.43,38.43,0,0,1-3.23,5.37c-6.19,7.43-14.92,10.94-23.38,14.88-13.34,6.21-17.39,16.56-11.61,31.59,8.21-4.51,16.42-8.74,24.33-13.48,5.4-3.24,10.38-7.19,15.54-10.84,2.14-1.53,4.18-3.77,7.2.06-1.12,1.62-2,4-3.67,5.09-10.5,7-21.23,13.57-31.79,20.44-3.22,2.1-7.41,4-9,7.13a112.07,112.07,0,0,0-11.77,43.7c5-4.42,8.62-7.75,12.4-10.83,16.74-13.64,32.41-28.85,53.4-36.28,8.62-3.05,13.92-10.08,19.05-17.08,2.75-3.75,4.92-7.92,7.4-11.86,9.78-15.54,23.14-27.41,38.43-37.23,1.38-.88,3.81-.11,5.75-.11l.91,2.15c-2.66,2.21-5.2,4.6-8,6.58-9.87,6.94-19.14,14.5-26.07,24.52-3.78,5.47-7.32,11.09-11.06,16.59-7.56,11.13-15.77,21.35-29.72,25.15a34.82,34.82,0,0,0-12.42,6.25c-19.42,15.65-38.86,31.31-57.69,47.66-14.31,12.43-27.33,26.34-41.6,38.82-16.29,14.24-33.37,27.57-50,41.44-3.31,2.75-6.67,5.78-9,9.35-3.8,5.92-9.23,8-15.67,9.27-8.12,1.64-16.17,3.75-24.13,6.1-4.43,1.3-7.38,4.35-7.32,9.52.06,5.88-3.42,8.91-8.63,10.75-5.84,2.06-11.54,4.47-17.33,6.74,1.47,6.7,5.87,9.16,11.66,9.45,6.73.34,13.37-.15,18.72-5.08,4.39-4,8.89-8,13.08-12.24,5.61-5.68,10.5-12.17,16.53-17.34,18.7-16,38-31.37,56.68-47.42,19.69-16.93,39-34.31,58.38-51.59,27-24.1,52.17-50.8,87.35-63.73a9.77,9.77,0,0,0,2.58-1.53,42.09,42.09,0,0,1,22.08-8.64c14.12-1.43,24.65-9.15,34.92-17.87a158.48,158.48,0,0,1,13.73-9.91c2.88-2,5.9-2.48,9.28.4-1,1.48-1.41,2.83-2.34,3.49-6.74,4.79-13.82,9.12-20.32,14.2-9.83,7.69-19.92,14.15-32.82,15.74-6.11.75-12.06,3.53-17.83,6-4.88,2.06-9.18,5.59-14.12,7.36-20.67,7.41-36,22.5-52.49,35.9-7.19,5.84-14,12.18-21.37,18.65l5.89,15.33c3.13-2.34,5.2-3.94,7.31-5.46,10-7.2,19.34-15.57,30.11-21.27,14.43-7.64,28.65-15.43,41.93-24.94,4.33-3.11,9.2-4.82,16.81-4.62-2,3-2.64,5.08-4.07,5.94-2.52,1.52-5.88,1.76-8.21,3.46a299.41,299.41,0,0,1-47.3,27.69,28.41,28.41,0,0,0-5.08,3.17C358.59,759.28,345,770,331.35,780.56a119.28,119.28,0,0,1-13.87,9.78c-25.28,14.3-49,30.89-72,48.63-7.45,5.75-15.15,11.87-25.57,12.49-2.83.17-5.77,3-8.17,5.12-3.21,2.87-5.93,6.29-8.88,9.45-5.41,5.8-10.82,11.59-16.85,18,13.44-1.92,21.42-6.64,31.36-17.71,4.87-5.42,9.49-10.92,16.63-14a114,114,0,0,0,18.86-11C271,829,288.45,815.47,307.14,804A523.89,523.89,0,0,0,356,769.46c11.22-8.79,23.2-16.67,35.2-24.41,9.45-6.1,19.69-11,29.13-17.14,7.62-4.95,15.37-9.19,24.32-11.06,5.21-1.08,10.39-2.29,15.56-3.57,32.94-8.14,65.51-17,96.1-32.52,33.86-17.16,61.52-41.8,88-68.18a28.08,28.08,0,0,0,3.08-3.93C657.22,594.77,667.12,581,676.7,567c8.49-12.4,16.8-24.88,30.38-32.49,18.87-10.59,37.43-21.79,56.69-31.63,28.55-14.6,56.32-30,79.44-52.85,16.7-16.49,37-27,60-32.11a119.51,119.51,0,0,0,16.27-4.8c4.63-1.74,9.55-3.55,13.32-6.59,12.16-9.83,26.36-15.28,40.79-20.32,9-3.15,18.21-5.78,27.33-8.64-11.35.73-22.37,2.9-33.44,4.78-20.54,3.5-28.54,3.63-34.73.26,5.94-5,12.8-3.89,19-4.83,6.9-1,13.86-1.74,20.76-2.86,6.56-1.07,13.07-2.49,19.61-3.75l19.19-3.69c-.1-.68-.21-1.35-.31-2-15.49,1.82-31,3.47-46.46,5.52-9.84,1.31-19.57,1-28.3-3.67-12.23-6.55-24.44-5.49-36.73-1.37-5.21,1.75-10.57,4.21-14.73,7.7-11.17,9.38-21.35,20-32.65,29.21-15.72,12.85-31.79,25.31-48.32,37.09-8.31,5.92-17.66,10.61-27,14.74-19.78,8.72-40.22,6.45-60.85,3-18.34-3.09-36.87-5.13-55.36-7.22-11.23-1.27-22.88-.35-33.75-2.93-13.91-3.29-27.71-3.32-41.66-2.93-15.31.44-30.6,1.54-45.91,1.81-18.06.31-31-7.15-38.17-24.7-8.11-19.82-14.64-40-18.39-61.07-.2-1.1-1.14-2.06-1.94-3.43l-6.4,4.12,6.75,7.41L475.72,375l9,3.38L477,386.59l10,1.4-7.22,8.52,11.33,2.89-10.66,9.12,10.76,2.35c-1.45,6.06-9.76,4.18-8.89,11.78h12.38c.25.76.5,1.53.74,2.29-3.46,2.29-6.93,4.57-12.32,8.11,4.53.76,6.9,1.33,9.31,1.52s5,.05,8.93.05c-1.81,2.62-2.51,4.6-3.88,5.37-1.64.92-3.85,1-5.82,1.07-3.06.09-5.33,1-5.45,4.42-.15,4.37,3.17,4.5,6.21,4.55,3.66.06,7.33-.3,11-.16,1.7.06,3.36.87,5.92,1.59-5.44,8-13.13,3.07-19.54,5.88-.67,2.07-1.53,4.72-2.87,8.88l34.43-2c-.89,2.23-1.17,4.24-1.83,4.37-9,1.8-18.13,3.34-27.89,5.06-1.57,2.85-3.56,6.43-6.52,11.79,7.2.32,12.44.07,17.52.91,4.79.79,10.06-4,15.42,1.75-8.68,7.36-19,2.59-27.75,5.09,1.89,9.83,5,13.16,14.25,12.88,9-.28,17.86-1.83,26.79-2.8,2.45-.26,4.92-.41,9.42-.78-2.27,3.12-3,5.35-4.33,5.74a84.42,84.42,0,0,1-13.64,2.8c-7.5.9-15,1.38-22.64,2,2.39,9.39,6.49,12.63,14.72,10.3,9.46-2.68,18.62-6.43,27.9-9.71.91,4.94,1.2,5.67-2.9,7.31a219.52,219.52,0,0,1-27.28,9.15c-6.81,1.72-12.6-2-16.17-7.64-2.46-3.87-2.93-9-5-13.14-2.16-4.37-5.41-8.2-7.71-12.52a34.14,34.14,0,0,1-3.16-9.26,17.09,17.09,0,0,1,.09-7.6c.77-2.82,2.52-5.37,3.82-8-1.07-1.86-3.07-3.71-2.83-5.19,1.18-7.18-2.12-14.06-1.7-20.68.44-7-2-12.86-3-19.22-.33-1.92-1.9-3.88-1.6-5.6,1.8-10.39-1.41-20-3.57-29.9-1.51-6.9-1.25-14.19-1.71-21.31-.33-5.11-.16-10.28-.89-15.33-.9-6.26-3.32-12.39-3.63-18.64-.54-11-.12-22,.18-32.95.15-5.82,4.45-7.8,11.74-5.24L472.68,304l5.82,6.61L469.27,315l8.72,5.69L471.51,328l5.15,4.55c-1.8,2.28-3.32,4.19-5.21,6.57,2.11,1.14,3.44,2.16,4.94,2.56C477.52,341.94,478.85,341.42,480,341.33Zm31.17,365.58c-25.07,6.32-48.92,12.2-72.68,18.45-3.73,1-7.12,3.47-10.51,5.53-8.8,5.35-17,12-26.38,16-14.94,6.44-26.9,17-39.95,26-1.07.74-1.68,2.15-2.66,3.47,11-1.59,21.11-2.88,31.2-4.63,3.51-.62,7.58-1.52,10.11-3.76,9.32-8.23,20.28-12.27,31.44-13.62,4-6.17,1.86-14.82,11.62-18.09-.43,3.29-.56,5.42-1,7.47-.85,3.88-2.58,7.7-2.73,11.6-.4,10.23,4.27,13.25,13.78,9.43a10.54,10.54,0,0,0,2.26-1.68c-.13-21.36,1.23-26.44,9.07-31a64.67,64.67,0,0,1,0,6.74c-.73,6.58-2.56,13.18-2.24,19.69.54,11,5,13.34,14.74,10.19,0-8.31-.06-16.24,0-24.18,0-2.92.94-5.33,6.09-4.16,0,3.27-.26,6.83.06,10.34a117.27,117.27,0,0,0,2.28,16.76c1.7,7,5,8.74,12.9,8,0-7.81-5.59-15.38-.9-23.64a9.79,9.79,0,0,1,3.75,5.1c1.63,6.1,2.38,12.5,4.57,18.37,3.29,8.78,9.13,11.5,17.37,9.25-.07-7.21-6.71-14.44.33-23.47,1.34,3.86,2.26,6.17,2.95,8.55,1.11,3.82,1.75,7.81,3.15,11.51,3.48,9.19,5.4,10,15.91,8.11-.43-7-6-13.89.37-23.31,1.48,4.52,2.3,7.16,3.21,9.77,1.74,5,3.26,10.09,5.4,14.91,1.78,4,5.23,5.65,10.07,4.62.92-6.33-6.1-12.37.18-19.91a75.54,75.54,0,0,1,3.67,7.44c1.77,5,3,10.25,5,15.18,2.7,6.78,6.88,8.52,15,6.92-6.1-23.61-6.13-24-1.07-28.92,6.22,11,2.55,26,15.17,34.81l9.38-6.43c-1.33-7.84-7.11-13.93-2.83-23.77,2.1,3.56,3.49,5.45,4.41,7.54,2.54,5.78,4.57,11.79,7.38,17.43,3.74,7.5,6,7.88,14,3.57-7.19-20.82-7.19-20.82-2.86-25.87,1.27,3.07,2.29,5.69,3.41,8.26,2.51,5.79,4.62,11.81,7.72,17.26,3.64,6.39,5.34,6.44,12.34,2.84-2-5.3-4.88-10.42-5.84-15.87-.83-4.71-5.09-10.43,2.31-16.21,1.23,4.5,2.47,7.8,3,11.21,1.35,8.49,5.36,15.7,10.25,22.5,2.67,3.71,5.84,6.52,10.92,4.13-9.14-26.11-9.48-28.61-4.62-35.39,3.52,2,2.83,5.75,3.39,8.8,1.75,9.58,4.08,18.93,10.45,26.64,1.19,1.44,3.24,2.15,6.82,4.41C691,816,690.2,812.48,689.42,809c-1.23-5.52-2.56-11-3.67-16.58-.61-3,.29-5.19,5-5,.85,3.32,1.93,6.74,2.6,10.23a292.89,292.89,0,0,0,15.06,52.74c2,5,3.93,10,11.87,11l6.23-5.7c-2-4.68-3.24-7.75-4.61-10.75a124.92,124.92,0,0,1-11.36-45.23c-.16-2.78-1-6.09,4.06-7.44,2.89,12.86,5,25.8,8.79,38.19a183.9,183.9,0,0,0,16.26,36.92l9.82-5.29c-3-7.82-6.48-14.72-8.42-22-3.39-12.82-5.94-25.86-8.68-38.85-.63-3-.57-6.08,3.59-6.53.67.72,1.36,1.13,1.49,1.67a77.29,77.29,0,0,1,1.47,7.84c2.62,22.12,10.4,42.58,20.19,62.35,1.78,3.61,4.82,6.6,7.81,10.59,2.74-4.11,4.39-7,6.43-9.53,2.21-2.78,1.76-5.15.36-8.22-5.77-12.72-11.52-25.46-16.6-38.46-2.26-5.8-3.09-12.19-4.22-18.38-.28-1.56.8-3.37,1.8-7.14,2.23,3.47,4,5.08,4.35,7,4.49,22.83,13.71,43.72,25.94,63.35a73.45,73.45,0,0,0,9,11.9c4.37,4.57,9.19,3.64,12.32-1.62,2.26-3.79-.55-6.2-2.13-9-7.88-13.89-16.35-27.48-23.33-41.8-3.72-7.61-4.93-16.47-7-24.84-.27-1.1,1.2-2.62,3-6.22,2.06,5.1,3.54,8.19,4.55,11.42,1.6,5.07,2.34,10.46,4.38,15.32,12.14,28.94,30,54.16,51.62,76.66,6.23,6.48,13.71,12,23,14.38,1.49-5.62.73-9.69-2.67-13.72-6.43-7.62-12.61-15.5-18.41-23.61-13.59-19-25.75-38.87-34.25-60.77-1.38-3.55-3.76-7.08.15-12.41,1.78,2.66,3.48,4.42,4.3,6.53a251.38,251.38,0,0,0,31,56.9c8.82,12.07,17.9,24.06,27.95,35.09,7.54,8.29,17.45,13.77,29.15,16.43,1.53-10.15,0-17.69-8.34-23.53C866,876.63,850.14,854,836.75,829.56a196.46,196.46,0,0,1-9-20c-.71-1.75-.11-4-.11-6.08,3.24.87,5,2.21,5.93,4,2.29,4.43,4.09,9.11,6.25,13.61C857,857,882.5,885.17,917.84,904c4.52,2.42,9.2,4.7,15.11,5-1-9.2-3.4-15.79-11.12-20.73C890.13,868,869,838,849.47,806.78c-1.44-2.3-4.15-4.86.19-8.44,1.7,1.63,3.79,3.1,5.17,5.06,6.3,9,12.63,18,18.53,27.24,13.32,20.86,30.93,37.42,50.88,51.68,9.71,6.94,20.56,11.57,31.89,16.55-.75-9.56-9.82-26.32-15.81-30.91-16.37-12.57-33-24.83-48.77-38.13-7-5.9-12.23-13.91-17.91-21.23-1-1.23-.14-3.84-.14-5.81l2.08-.8c1.74,2.14,3.44,4.33,5.24,6.43,4.77,5.54,9.07,11.61,14.48,16.43,10.19,9.07,20.75,17.79,31.67,26a257.31,257.31,0,0,0,54.35,31.29c4.23,1.79,8.57,3.73,13.59,1.71,1.45-5.44-1.73-9-5.13-12.09-7.65-6.91-15.06-14.28-23.53-20-12.61-8.58-22.73-19.58-32.55-30.83-19.92-22.81-39.23-46.15-58.87-69.19-6.7-7.86-13.79-15.38-20.45-23.27C837.84,708.81,821.56,689,805,669.49c-17.35-20.42-39.09-32.63-66.11-35.15-17.22-1.6-34.34-4.25-51.57-5.78-13.84-1.24-24.08-6.93-29.6-20.08-.15-.37-1.05-.42-1.07-.42a376.6,376.6,0,0,1-78.85,68.48c-.55,13.79.1,15.47,6.82,17.92,2-4.94-2.31-11.2,3.79-16.52,1.16,2.68,2.36,4.56,2.74,6.58.49,2.59.09,5.34.47,8,1.21,8.27,3.86,9.9,13.28,8.16.21-3.5.24-7.15.71-10.74.44-3.37,1.34-6.68,2-9.94,5.33.88,4.49,3.89,4.52,6.41,0,4.32-.5,8.75.31,12.92.36,1.88,3.16,4.1,5.25,4.64,3.37.87,4.61-1.93,4.63-4.9,0-4.32-.29-8.65-.22-13,0-2.54-.1-5.53,4.48-5.68,4.8,7.82,0,17.46,3.84,25.93l8.15-.73c-.54-4.51-1-8.44-1.5-12.37-.49-4.12-1-8.25-1.46-12.11,4.9-1.78,5.86.72,6.37,3.53,1,5.56,1.54,11.24,2.9,16.71s2.39,5.78,9,3.56c.31-8.27-5.26-16.28-.52-26.77,1.89,3.33,3.35,5,3.78,6.85,1.1,4.86,1.49,9.89,2.64,14.74,1.37,5.78,2.4,6.17,10.1,5.53.74-8.76-5.2-17.53-.84-27.28,6.75,4.13,4.13,10.32,5.74,15,1.55,4.48-.12,10.43,6.27,13.15.53-18.29.53-18.29,5.84-20.05.34,4.43.49,8.67,1.05,12.86s-1,9.72,6.72,9.93c1.17-6.27-.32-13.06,6-19,1,2.89,2,4.76,2.08,6.64,0,3.29-1,6.62-.78,9.87.43,5.86,1.28,6.18,8.35,4.79,2-18.85,2-18.85,5.7-20.39,3.94,6.34-1.57,14.42,3.41,21.12,8.28-5.28,1.25-17.4,12.16-23-.7,8.56-1.26,15.48-1.9,23.24l6.56-.73c1.14-5.92-.38-12.09,6.53-16,.62,2.36,1.43,4.06,1.42,5.75,0,3-1.05,6-.65,8.86.24,1.72,2.39,3.18,3.67,4.76,1.15-1.4,3-2.65,3.32-4.22.81-3.54.54-7.33,1.44-10.84.41-1.57,2.57-2.7,5.5-5.56v23.58c5,1.81,6.54-.44,7.36-4.4.61-3-.94-7,4.33-8.72,6.18,5.7-2.87,15.68,5,21.31,3.28-5,.19-11.76,5.3-15.72,5.37,2.26,3,6,2.82,9.48-.22,4-1.31,8.68,4.12,10.1,5-3.57-.15-12.42,8-13.4,4.66,6.53-4.79,16.27,5.52,21.56,2.37-5.34.34-12.1,6.42-15.15,4.7,2.6,2,5.9,1.52,8.92-1.19,7.4-.26,9.17,6.32,12,2.27-4.73.06-11.53,6.41-14.74,4.51,3.13,1.29,6.77,1.16,10.05-.15,3.77-1.87,7.82,1.79,11,4.75-2.35.68-10,7.4-10.94,4,2.65,1.09,6.64,1.66,10,.61,3.46-.67,8.21,5.34,8.48,1.13-12.62,1.13-12.62,6.53-15,.55,6.14,1.08,12.09,1.61,18,4-4.9-.59-12.1,7.77-16.29.79,6,1.48,11.23,2.12,16.13l11.73,4.12c-1.5,1.84-2.1,3.24-2.7,3.23-7.46-.06-14.85,1.4-22.38-1.6-6.29-2.52-12.52-4.51-18.25-8.57-11.15-7.91-25-11.19-35.6-20.33-.9-.78-2.53-.66-3.75-1.13-10.3-3.94-20.56-8-30.9-11.85-5.74-2.14-11.49-5-17.43-5.62-8.82-.85-17.82.18-26.74.16a47.08,47.08,0,0,1-9.81-1.13c-6.64-1.43-13.15-4.09-19.83-4.58-10.83-.78-21.75,0-32.62-.27-13.52-.31-26.83-2.61-40.2-4.32a105.87,105.87,0,0,1-24.73-6.3c-6.15-2.35-10-6.38-11-13-.37-2.51-.93-5-1.6-8.49-8.94,4.64-17,9.3-25.46,13.07s-17.24,6.63-26.32,10.06c-.56,10.63-5.92,21.22.15,31.76,12.42.14,12.4.14,12.46-11.17,0-2.65-.15-5.42.54-7.93.37-1.35,2.37-2.25,5.29-4.81,1.16,11.94-.63,22.47,3.84,32.2h13.78c1.66-6.23-2.24-12.52,2.49-18.34,7.61,6.14,1.29,16.35,8.73,22.61l8.15-1c1.18-7.43-4.6-14.22,1.21-21.16,4.64,4.19,3.65,9.57,4.81,14.14,2.16,8.54,5.42,11.07,14.75,11.11,1.82-6.81-1.62-14.26,2.63-23.61,2,4.08,3.48,6.07,3.81,8.23.53,3.6.07,7.34.44,11,.74,7.42,2.85,9.26,10.18,9a54.13,54.13,0,0,0,7.38-1.29c-7.1-27.17-7.1-27.17-2.64-31.25,1,3.09,1.8,5.8,2.71,8.46,2.27,6.6,4.28,13.31,7,19.74,2,4.7,5.55,7.33,11.65,4.49-1.28-6-3.14-11.71-3.58-17.56-.4-5.22-5.26-10.74,1-17.7,1.71,4.52,3.22,7.65,4.07,11,1.65,6.44,2.59,13.08,4.43,19.46,2.19,7.64,3,7.88,13.37,6.71-1-3.54-2.23-6.89-3-10.35a76,76,0,0,1-1.89-12.77c0-1.5,2-3.08,4.09-6,2.07,8.53,3.32,15,5.27,21.32,2.56,8.31,3.69,8.72,13,7-7.27-23.69-7.35-28.36-.05-32.29.32,2.06.52,4,.91,5.79,1.61,7.44,2.8,15,5.12,22.25,1.31,4.07,4.12,8.2,9.63,7.24,0-6.46-.31-12.08.11-17.64.26-3.4,2.18-5.61,5.81-3.38,0,4-.23,7.62,0,11.21.82,11.13,4,12.94,14.61,8.39-.25-8.93-2.83-18.2,2.28-26.67,5.29.71,4,4.14,4,6.94-.07,4.64-.58,9.31-.12,13.89.71,7,1.47,7.29,10.52,6.58-.53-4.22-1.18-8.42-1.57-12.64a87.91,87.91,0,0,1-.52-11.91c.05-1.09,2-2.09,3.07-3.13.94,1.19,2.27,2.24,2.71,3.59.49,1.52-.08,3.36.26,5,1.6,7.43,3,14.91,5.18,22.19,1,3.4,3.27,6.65,8,4.74-1.82-24.74-1.82-24.74,1.94-29.08,4.22,1.81,2.4,5.63,2.8,8.66.65,4.91.92,9.89,1.84,14.74s4.29,7.14,10.37,6.66c-1.12-5.75-2.37-11.13-3.16-16.58-.73-5.06-3.67-10.64,3-15.89,4.55,12.86,2.35,27.23,13.71,39.06-.75-7.46-1.77-12.63-1.65-17.77.11-4.76-2.18-10.52,5.11-15.44.46,4.43.68,7.46,1.09,10.45,1.07,7.89,2.06,15.79,3.48,23.61.28,1.58,2.33,2.85,3.57,4.26,1.32-3.51,1-6.11,1-8.71-.14-5.32-.46-10.67-.14-16,.21-3.42,1.62-6.5,6.45-4.69-.24,11.38-1.6,22.59,4.25,35.18,1-7,1.33-11.83,2.41-16.5,1-4.37-1.84-10,5.11-14,.65,3.16,1.63,5.53,1.51,7.83-.28,5.31-1.21,10.58-1.66,15.89-.29,3.45-.75,7.19,5.15,9.49.46-4.77.69-8.6,1.23-12.39a78.91,78.91,0,0,1,2.39-12.67c.9-2.81,3.25-4.32,5.6-1.81-.73,8.89-1.42,17.35-2.15,26.23h6.2c1.35-17.45,1.35-17.45,6.65-21.75,0,5.15-.46,9.28.2,13.22s-2.15,9.83,5.53,11c.43-5.55.84-10.78,1.31-16.86,9,3.52,1.91,13.65,9.3,16.72,3.09-5.14-2.66-13.18,6.64-16.63.37,4.69-.51,9.24,1.28,12.13s6.32,4.45,10.67,7.24c-2.38,1.35-4.1,3.12-6,3.27-20.13,1.55-40.11-.21-59.86-4-3.9-.75-7.29-3.88-11.08-5.52-5.11-2.22-10.78-3.41-15.47-6.26a32.15,32.15,0,0,0-14.9-5c-5-.35-10-.53-14.93-1-2.25-.2-5.57-.15-6.5-1.52-5.29-7.76-13.68-6.5-20.72-6.51-7.83,0-15.66,1.65-23.61.27-5.47-1-11.06-1.2-16.56-2-11.67-1.74-23.68,3.46-35.22-1.73-1-.44-2.55.59-3.86.66-2,.12-4.37.72-5.87-.14-6.08-3.49-12.31-.56-18.39-1.12-6.41-.59-12.72-2.34-19-3.71-3.52-.77-7-1.88-10.48-2.68a72.35,72.35,0,0,0-9.33-1.66c-3.94-.35-8.81,1.14-11.66-.69-4.48-2.87-8.58-2.6-13.22-2.28-7.68.53-14.81-.3-16.61-9.51-20.32,2.21-24.76-2.19-22.65-21.7.18-1.66.53-3.3.73-5C510.62,712.48,510.88,709.91,511.21,706.91Zm20.27-518.6c0-1.22-.07-2.44-.1-3.66l11.14-2.33c4.23-.87,8.58-1.36,12.67-2.67,4.3-1.38,4.92-4,2.62-7.69-4.46-7.21-11.08-10-17.78-6-9.42,5.56-18.93,11.33-27.21,18.4-26.57,22.68-52.45,46.18-78.9,69-15.41,13.31-30.71,26.71-42.42,43.48-8.38,12-15.89,24.62-23.67,37A57.1,57.1,0,0,0,364.6,341c18.75,3.24,22.28,2.65,25.73-4-9-4.21-9-4.21-7.48-10.56,5.61,2.92,11.21,4.09,16.08-1.13-1.63-4.37-10.41-.79-8.86-8.17,7.43-4,16.53,6.35,23.15-3.15-6.74-4.16-6.74-4.16-9.34-9,10.72-1.62,22.86,7.34,33.12-5.07-5.15-.51-9.07-.49-12.75-1.43-1.68-.42-2.89-2.71-4.32-4.15,1.6-.83,3.2-2.38,4.79-2.36,5,.08,9.95,1.06,14.93,1.11,6.88.06,13.72-.56,19.59-5.15-4.47-4.13-10.92,2.73-15.38-4.77,3.16-1.07,5.71-2.55,8.34-2.71,8.3-.49,16.63-.61,24.95-.63,9.65,0,19.32.43,29,.19,4-.1,8-1.47,13.69-2.6-10.16-12.25-23.44-14.92-35.92-21.66a3.75,3.75,0,0,1,3.32-2.1c3.85.46,8,.51,11.41,2.14,9.74,4.72,19,10.63,30.39,4.63,1.87-1,4.67,0,6.91-.47a50.53,50.53,0,0,0,7-2.57c-1.13-2.58-1.81-5.52-3.49-7.66-2.23-2.82-6.58-4.55-7.64-7.58-2.28-6.52-7.11-7.73-12.53-7.61-6.21.14-12.39,1.37-18.6,2-1.41.13-2.88-.49-5.48-1,1.87-2.35,2.74-4.45,4.23-5.09,3-1.27,6.37-2.59,9.48-2.37,9.92.71,19.81,1.92,29.66,3.34,6.15.88,12.2,2.45,18.78-.28-.8-3-1.46-5.54-2.16-8.06-2.42-8.69-7.77-13.71-17.17-13.46-5.31.14-10.6.52-15.9.66-3.07.08-6.07-.19-6-5,1.6-.44,3.11-1.2,4.61-1.19,11.62.08,23.24.43,34.86.45,4.46,0,8.93-.62,13.29-.95-.31-8.19-.51-9.84-4.73-12.33a28,28,0,0,0-11.77-4c-4.18-.29-8.47,1.54-12.77,1.92C536.9,189.39,534.17,188.63,531.48,188.31ZM259,818.05l1.26,1.68c23.22-19.47,52.11-30.57,74.83-51.05-2-4.75-3.53-8.53-5.17-12.51C305.7,777.29,282.35,797.67,259,818.05Z"/><path d="M373.58,1062.24v-24.39c-10.18,0-19.44.26-28.68-.08-7.9-.29-16.25.18-23.56-2.23-16.54-5.47-21.68-19.42-22.24-35.42-.15-4.23,1-8.57,2-12.76,2.56-11.13,9.22-18.21,20.79-20,6.87-1.08,13.74-2.7,20.64-2.91,32.29-1,64.6-1.61,96.9-2.27,18.36-.37,30.27,8,35.92,25.45a65.46,65.46,0,0,1,2.86,13.63c1.78,17.95-7.52,30.81-25.32,33.3-12.15,1.69-24.56,1.46-36.86,2-3.63.16-7.27,0-11.18,0-2.71,7.67-1.15,14.8-.75,22.59,2.74.33,5.27.82,7.82.9,18.31.6,36.62,1,54.93,1.7,11.87.46,14.91,3.06,14.7,11.46-.3,11.49-4.52,16-15.53,16-35.65-.09-71.3-.3-106.95-.45-14.66-.06-29.32,0-44-.14-9.29-.08-11.9-3-12-12.92-.08-8.46,4.17-13.22,12.46-13.31,15.66-.17,31.32-.08,47-.1Zm101.85,7.22c-3.29-.44-5.53-.93-7.78-1q-30.43-1.07-60.89-2c-9.11-.29-9.25-.44-9.6-9.74-.19-5-.54-10-.69-15-.29-9.89,1.61-11.64,11.35-11.75,13-.14,26-.34,38.93-1,12-.56,21.17-7,24.13-16.16,7.08-21.87-9.19-44.59-32.14-44.24q-46.94.71-93.86,2.33a95.33,95.33,0,0,0-23.54,3.59,22.26,22.26,0,0,0-11.45,8.73c-7.32,11.47-6.74,38,12.32,45.31a48,48,0,0,0,16.42,2.8c11,.13,22-.77,32.94-.92,6.5-.09,7.57.88,8.3,7.24s1.1,12.61,1.28,18.93c.32,11.71.07,11.87-11.3,11.95-17,.12-34,.11-51,.42-9.69.18-11,2.85-6.86,12.79H473C473.86,1077.56,474.6,1073.78,475.43,1069.46Z"/><path d="M688.37,1068.14c-10.54,0-20.12-.19-29.7,0-32.64.78-65.28,1.71-97.92,2.61-4,.11-8,.43-12,.64-8.71.44-11.58-2.17-11.73-10.63,0-.67,0-1.34,0-2,.27-12.82,1.8-14.37,14.33-14.7q71.45-1.89,142.89-3.78a106.91,106.91,0,0,1,15,.23c6,.69,8.13,3.11,8.22,9.2.17,11.66-.07,23.33-.09,35,0,5-2.75,7.2-7.47,7.41-1,0-2,0-3,0-17.36.59-17.78.19-18.1-17.13C688.77,1073.08,688.56,1071.11,688.37,1068.14Zm22.45-21.53-166.07,4.23c-.48,4.5-.88,8.24-1.45,13.54,4.77,0,8.31.09,11.84,0q63.39-1.74,126.76-3.47c4.14-.1,8.3.52,13.47.87v24l15.45-1.09Z"/><path d="M805.38,1061.27c12.9,0,24.84.28,36.77,0,32.28-.9,64.55-2.06,96.83-3.12h1c12.47,0,16.57,5.32,13.82,17.52-1.2,5.32-3.87,7.87-9.58,8-21,.41-41.93,1.14-62.9,1.76l-87.86,2.59c-1.66,0-3.33,0-5,0-5.14-.07-8.07-2.35-8.29-7.8-.19-4.65-.67-9.3-1.15-13.93-.58-5.57-1.15-11.14-2-16.67-.68-4.43.94-7.29,5.25-8.08a59.6,59.6,0,0,1,10.92-.88c11.24.08,13.76,3.18,12.22,14.31A49.7,49.7,0,0,0,805.38,1061.27ZM947,1064.33c-25.51.78-49.72,1.73-73.94,2.21-24.44.49-48.87,3.12-74,1.54v-20.14H784.59c.76,11.21,1.5,22,2.28,33.49L947,1077.1Z"/><path d="M685.67,1010.65,669.39,1012c0,4.5.06,8.37,0,12.24-.05,2,.29,4.4-.69,5.85-4.54,6.72-11.56,5.36-18.11,4.69-6.11-.63-8.73-3.11-9.57-8.28a24,24,0,0,1-.13-4c0-19-.11-37.92,0-56.88.08-9.72,4.42-13.1,14-11.33,2.27.42,4.46,1.42,6.74,1.68,5.44.62,7.31,4.27,7.58,8.93.31,5.26.07,10.55.07,16.57h14.92c1.51-5.54.94-11-.2-16.51-1.4-6.77.56-10.75,7.13-11.78,5.71-.89,11.83,0,17.64.87,3.67.58,5,4.12,5,7.73q-.18,32.41-.46,64.84c0,4.81-2.61,7.38-7.29,7.77a68.36,68.36,0,0,1-8,.16c-10-.29-11.44-1.79-11.75-11.68C686.14,1019.25,685.91,1015.66,685.67,1010.65Zm-37.9,16.88,14.71,1c.29-6.49.58-11.72.73-17,.11-4,2.12-6.36,6-6.46,7.22-.19,14.44-.06,22.42-.06.67,7.74,1.31,15.15,2,23.34l12.85-1.51V960.41c-5.36-.55-10.66-4.07-15.18.27,0,7.48,0,14.07,0,20.67,0,3.43-1.51,6.34-4.81,6.57-7.42.5-15,2.35-23.56-.5,0-4.76.11-9.35,0-13.93-.3-11.17-3.1-13.4-15.21-11.84Z"/><path d="M590.3,970.23c1.48-14,9-19.25,20.32-15.47,4.64,1.55,7,4.41,6.85,9.62-.34,17.92-.54,35.85-.48,53.77,0,13.07-3.07,16.82-16.1,17.14-16.63.41-33.28.67-49.92.69-12,0-15.3-3.53-15.42-15.51-.19-17.65-.41-35.3-.48-52.94,0-9.69.83-10.49,10.67-11.7.66-.08,1.32-.2,2-.25,12.26-.92,17.09,4,15.45,16.63Zm20.11-7.59c-9.91-3.86-11.91-2.84-13.14,6.63-.87,6.73-1.71,7.56-8.79,8-6.64.44-13.29.89-20,1.09-14.2.44-15.4-1-12.48-14.56-4.65-3.06-9.22-1.64-13.92-.23,0,20.2,0,39.81,0,59.42,0,5.27,3.23,6.69,7.92,6.59,16.65-.35,33.31-.44,50-.93,10.1-.31,10.35-.8,10.38-11.32C610.44,999.09,610.41,980.84,610.41,962.64Z"/><path d="M846.08,1033c-.3,1.92-.44,2.9-.61,3.87-.77,4.33,2.23,10.61-3.38,12.45-5.78,1.91-12.35,1.88-18.56,1.76-1.45,0-3.58-3.65-4.08-5.91-.84-3.78-.61-7.8-.88-12.56-8-.43-15.52-.85-23.07-1.23-2.66-.13-5.33-.06-8-.24-9.45-.65-10.25-1.51-10.35-10.62-.09-9.48,1.31-11,11-11.17q44.43-.6,88.87-1c11.41-.08,16.28,6.87,13,17.8-1.44,4.77-5.21,5.63-9.4,5.74-9.65.25-19.31.41-29,.64C850,1032.63,848.37,1032.84,846.08,1033Zm-61.73-17c-1.05,6,.42,8.44,5.37,8.55q13.46.3,26.91,1.12c7.51.46,8.43,1.6,8.8,9,.15,3.17.36,6.35.59,10.37l12.4-1.06c.53-6.31,1-11.47,1.5-18h43v-10Z"/><path d="M827.76,1001.36c-9.64,0-19.29-.2-28.93.07-6.76.19-11.29-2.8-14.84-8.24a30.73,30.73,0,0,1-5.09-21.8c1.72-12.21,10.47-20.71,22.82-21,20.27-.46,40.56-.44,60.84-.27,10.91.1,20.82,10.13,23.07,22.5,2.17,11.84-3.12,22.06-14.48,26.37a51.41,51.41,0,0,1-15.49,2.94c-9.28.46-18.6.13-27.9.13Zm-.2-6.33c0-.29,0-.58,0-.88,12.26,0,24.59.81,36.76-.25,10-.87,15.79-8.73,15.2-17.69-.71-10.56-9.13-19.7-18.76-19.71-18.63,0-37.27,0-55.89.53-16.61.44-24.65,14.44-17.29,29.26,2.9,5.85,6.85,9.3,14,8.86C810.24,994.63,818.91,995,827.56,995Z"/><path d="M925.38,981.53c.35-7.92,1-14.18.81-20.42-.14-5.7,1.85-10.6,7.1-11.73,4.85-1,10.5-.3,15.28,1.26,1.88.61,3.3,5.56,3.3,8.54,0,18.93-.44,37.86-.73,56.8-.1,6.31-.23,12.62-.24,18.93,0,4.48-2.22,6.78-6.59,7a73.08,73.08,0,0,1-8,.1c-9.12-.49-11.07-2.43-11.23-11.41-.12-7.25,0-14.5,0-22.65-6.09-.25-11.64-.42-17.19-.72-7.52-.39-9.35-2.16-9.53-9.6a26.72,26.72,0,0,1,.92-7.87c1.67-5.78,4.6-7.95,10.81-8.22C914.69,981.37,919.3,981.53,925.38,981.53ZM944,956.84c-9.06-3.73-10.36-3-11.15,7-.39,5-.22,10-.72,14.93-.64,6.48-2.29,8.1-8.52,8.87-3.29.41-6.64.34-10,.6-8.55.68-9.33,1.91-7.24,12,5.11.27,10.38.48,15.65.82,8.21.53,9.77,2.06,9.94,10.3.16,7.56,0,15.12,0,23.44h12Z"/><path class="cls-2" d="M480.09,341.27c-1.24.15-2.57.67-3.7.37-1.5-.4-2.83-1.42-4.94-2.56,1.89-2.38,3.41-4.29,5.21-6.57L471.51,328l6.48-7.23L469.27,315l9.23-4.42L472.68,304l4.74-6.11c-7.29-2.56-11.59-.58-11.74,5.24-.3,11-.72,22-.18,32.95.31,6.25,2.73,12.38,3.63,18.64.73,5,.56,10.22.89,15.33.46,7.12.2,14.41,1.71,21.31,2.16,9.9,5.37,19.51,3.57,29.9-.3,1.72,1.27,3.68,1.6,5.6,1.06,6.36,3.45,12.22,3,19.22-.42,6.62,2.88,13.5,1.7,20.68-.24,1.48,1.76,3.33,2.83,5.19-1.3,2.63-3.05,5.18-3.82,8a17.09,17.09,0,0,0-.09,7.6,34.14,34.14,0,0,0,3.16,9.26c2.3,4.32,5.55,8.15,7.71,12.52,2.07,4.19,2.54,9.27,5,13.14,3.57,5.6,9.36,9.36,16.17,7.64A219.52,219.52,0,0,0,539.85,521c4.1-1.64,3.81-2.37,2.9-7.31-9.28,3.28-18.44,7-27.9,9.71-8.23,2.33-12.33-.91-14.72-10.3,7.59-.66,15.14-1.14,22.64-2a84.42,84.42,0,0,0,13.64-2.8c1.3-.39,2.06-2.62,4.33-5.74-4.5.37-7,.52-9.42.78-8.93,1-17.84,2.52-26.79,2.8-9.27.28-12.36-3.05-14.25-12.88,8.76-2.5,19.07,2.27,27.75-5.09-5.36-5.74-10.63-1-15.42-1.75-5.08-.84-10.32-.59-17.52-.91,3-5.36,5-8.94,6.52-11.79,9.76-1.72,18.85-3.26,27.89-5.06.66-.13.94-2.14,1.83-4.37l-34.43,2c1.34-4.16,2.2-6.81,2.87-8.88,6.41-2.81,14.1,2.12,19.54-5.88-2.56-.72-4.22-1.53-5.92-1.59-3.65-.14-7.32.22-11,.16-3,0-6.36-.18-6.21-4.55.12-3.39,2.39-4.33,5.45-4.42,2-.07,4.18-.15,5.82-1.07,1.37-.77,2.07-2.75,3.88-5.37-4,0-6.46.15-8.93-.05s-4.78-.76-9.31-1.52c5.39-3.54,8.86-5.82,12.32-8.11-.24-.76-.49-1.53-.74-2.29H482.31c-.87-7.6,7.44-5.72,8.89-11.78l-10.76-2.35,10.66-9.12-11.33-2.89L487,388l-10-1.4,7.76-8.22-9-3.38,5.38-6.32-6.75-7.41,6.4-4.12c.8,1.37,1.74,2.33,1.94,3.43,3.75,21.08,10.28,41.25,18.39,61.07,7.17,17.55,20.11,25,38.17,24.7,15.31-.27,30.6-1.37,45.91-1.81,14-.39,27.75-.36,41.66,2.93,10.87,2.58,22.52,1.66,33.75,2.93,18.49,2.09,37,4.13,55.36,7.22,20.63,3.48,41.07,5.75,60.85-3,9.38-4.13,18.73-8.82,27-14.74,16.53-11.78,32.6-24.24,48.32-37.09,11.3-9.23,21.48-19.83,32.65-29.21,4.16-3.49,9.52-6,14.73-7.7,12.29-4.12,24.5-5.18,36.73,1.37,8.73,4.67,18.46,5,28.3,3.67,15.46-2.05,31-3.7,46.46-5.52.1.67.21,1.34.31,2l-19.19,3.69c-6.54,1.26-13,2.68-19.61,3.75-6.9,1.12-13.86,1.82-20.76,2.86-6.21.94-13.07-.14-19,4.83,6.19,3.37,14.19,3.24,34.73-.26,11.07-1.88,22.09-4.05,33.44-4.78-9.12,2.86-18.31,5.49-27.33,8.64-14.43,5-28.63,10.49-40.79,20.32-3.77,3-8.69,4.85-13.32,6.59a119.51,119.51,0,0,1-16.27,4.8c-23,5.09-43.3,15.62-60,32.11-23.12,22.84-50.89,38.25-79.44,52.85-19.26,9.84-37.82,21-56.69,31.63-13.58,7.61-21.89,20.09-30.38,32.49-9.58,14-19.48,27.81-29.26,41.69a28.08,28.08,0,0,1-3.08,3.93c-26.5,26.38-54.16,51-88,68.18-30.59,15.5-63.16,24.38-96.1,32.52-5.17,1.28-10.35,2.49-15.56,3.57-8.95,1.87-16.7,6.11-24.32,11.06-9.44,6.13-19.68,11-29.13,17.14-12,7.74-24,15.62-35.2,24.41A523.89,523.89,0,0,1,307.14,804c-18.69,11.47-36.1,25-54.24,37.41a114,114,0,0,1-18.86,11c-7.14,3.07-11.76,8.57-16.63,14-9.94,11.07-17.92,15.79-31.36,17.71,6-6.44,11.44-12.23,16.85-18,2.95-3.16,5.67-6.58,8.88-9.45,2.4-2.15,5.34-5,8.17-5.12,10.42-.62,18.12-6.74,25.57-12.49,23-17.74,46.68-34.33,72-48.63a119.28,119.28,0,0,0,13.87-9.78C345,770,358.59,759.28,372.24,748.67a28.41,28.41,0,0,1,5.08-3.17,299.41,299.41,0,0,0,47.3-27.69c2.33-1.7,5.69-1.94,8.21-3.46,1.43-.86,2.11-3,4.07-5.94-7.61-.2-12.48,1.51-16.81,4.62-13.28,9.51-27.5,17.3-41.93,24.94-10.77,5.7-20.13,14.07-30.11,21.27-2.11,1.52-4.18,3.12-7.31,5.46l-5.89-15.33c7.39-6.47,14.18-12.81,21.37-18.65,16.5-13.4,31.82-28.49,52.49-35.9,4.94-1.77,9.24-5.3,14.12-7.36,5.77-2.44,11.72-5.22,17.83-6,12.9-1.59,23-8,32.82-15.74,6.5-5.08,13.58-9.41,20.32-14.2.93-.66,1.38-2,2.34-3.49-3.38-2.88-6.4-2.36-9.28-.4a158.48,158.48,0,0,0-13.73,9.91c-10.27,8.72-20.8,16.44-34.92,17.87a42.09,42.09,0,0,0-22.08,8.64,9.77,9.77,0,0,1-2.58,1.53c-35.18,12.93-60.31,39.63-87.35,63.73-19.39,17.28-38.69,34.66-58.38,51.59-18.69,16.05-38,31.39-56.68,47.42-6,5.17-10.92,11.66-16.53,17.34-4.19,4.25-8.69,8.2-13.08,12.24-5.35,4.93-12,5.42-18.72,5.08-5.79-.29-10.19-2.75-11.66-9.45,5.79-2.27,11.49-4.68,17.33-6.74,5.21-1.84,8.69-4.87,8.63-10.75-.06-5.17,2.89-8.22,7.32-9.52,8-2.35,16-4.46,24.13-6.1,6.44-1.29,11.87-3.35,15.67-9.27,2.28-3.57,5.64-6.6,9-9.35,16.61-13.87,33.69-27.2,50-41.44,14.27-12.48,27.29-26.39,41.6-38.82,18.83-16.35,38.27-32,57.69-47.66a34.82,34.82,0,0,1,12.42-6.25c13.95-3.8,22.16-14,29.72-25.15,3.74-5.5,7.28-11.12,11.06-16.59,6.93-10,16.2-17.58,26.07-24.52,2.83-2,5.37-4.37,8-6.58l-.91-2.15c-1.94,0-4.37-.77-5.75.11-15.29,9.82-28.65,21.69-38.43,37.23-2.48,3.94-4.65,8.11-7.4,11.86-5.13,7-10.43,14-19.05,17.08-21,7.43-36.66,22.64-53.4,36.28-3.78,3.08-7.36,6.41-12.4,10.83a112.07,112.07,0,0,1,11.77-43.7c1.56-3.1,5.75-5,9-7.13,10.56-6.87,21.29-13.48,31.79-20.44,1.69-1.11,2.55-3.47,3.67-5.09-3-3.83-5.06-1.59-7.2-.06-5.16,3.65-10.14,7.6-15.54,10.84-7.91,4.74-16.12,9-24.33,13.48-5.78-15-1.73-25.38,11.61-31.59,8.46-3.94,17.19-7.45,23.38-14.88a38.43,38.43,0,0,0,3.23-5.37c-3.53-3.37-5.67-1.11-7.39.73-8.05,8.62-18.86,12.15-29.73,16.87-1.33-5.32,1.33-8.81,4.22-11.81,7.57-7.89,14.56-16.51,25.22-20.79,2.09-.83,3.58-3.14,4.74-5.62-12.47-1-20.16,7.39-28.7,15.53-.72-4.13-1.18-6.69-1.62-9.25a9.43,9.43,0,0,1,4.6-10.24c5.33-3.4,10.77-6.64,16.11-10,2.4-1.52,5.82-2.32,4.93-7.51-10.25,0-16.52,8.87-25.3,11.69-6.84-8.51-6.06-12.27,3.43-16.07,4.32-1.73,8.77-3.16,13-5,1.66-.71,3-2.16,4.65-3.41-4.94-3.32-4.94-3.32-27,4.92-1.11-2.27-3.23-4.67-3.23-7.07,0-3.47,2.38-6,6.19-6.81a101.82,101.82,0,0,0,10.68-2.56,65.61,65.61,0,0,0,7.47-3.38l-.33-2.07c-1.63-.58-3.38-1.87-4.87-1.62a125.32,125.32,0,0,0-14.57,3.44c-4.42,1.3-7.14-.39-8.63-4.32-1.22-3.22,1.19-6,6.49-7,6.15-1.1,12.4-1.67,19-2.52.45-5.78-3.53-6-7-5.75a103,103,0,0,0-14.8,2.2c-4.12.89-6.44-1-7.83-4.34s-.42-6.88,2.78-8.71a22.81,22.81,0,0,1,9.2-3.08c4.61-.37,9.3.45,13.95.42a8.83,8.83,0,0,0,5.7-2.55c-9-6.43-18.87-3.66-28.47-3.79-2.66-8-1.05-11.85,6.83-13.62,6.47-1.44,13.17-1.87,19.77-2.71,2.53-.31,5.58.37,6-3.64-1.84-4.05-5.51-2.84-8.61-2.56-5.63.51-11.23,1.35-16.83,2.17-4.53.66-8.32-.46-9.28-5.25-.9-4.46,1.5-8,5.86-9.15,5.77-1.51,11.74-2.27,17.6-3.42,3.37-.66,7.44.11,9.64-4.6-4.86-4.54-10.14-1.26-14.95-1-5.24.32-10.43,1.52-15.57,2.33-3.75-12.43-2-15.58,9.72-17.63,3.27-.58,6.61-.73,9.92-1.11,2.79-.32,5.58-.69,8.81-1.09-3.24-5.54-3.24-5.54-23.83-4.15a22.63,22.63,0,0,1-2.42-3.95c-2.77-7.42,0-11.86,7.9-12.11,6-.18,12,.34,17.93.2,1.53,0,3-1.43,5.2-2.53-4.38-5-9.11-3.58-13.58-3.61-4.3,0-8.6-.53-12.75-.82-3.05-8.4-2.07-10.62,5.73-11.68,3.91-.54,8,0,11.95,0h12.28c-1.55-8.74-7.58-6-11.81-6.38-4.6-.41-9.27-.1-13.81-.1-.95-10.95,4.29-17.46,14-17.85,4.31-.18,8.65.47,13,.5a77.86,77.86,0,0,0,7.86-.74c-4.29-6.5-12.29-7.62-31.24-5.17.77-9.17,1.85-10.5,10-11.19,7.56-.65,15.14-1,22.51-1.51,1.5-4.26-1-5.62-3.72-5.75-4-.18-7.95.51-11.93.65s-7.77,0-11.51,0c-1.52-5.07,1.4-6.32,4.45-6.63,4-.4,8,0,12-.11,2.18,0,4.36-.26,7.52-.46-4.81-9.77-13.75-3.59-19.77-7,.12-4.69,3-4.91,6.72-4.27,5.55,1,11.1,2.29,16.69,2.48,10.19.34,12.19-2.47,16.63-11.95,2.41-5.15,8.19-8.72,12.51-12.95.43-.42,1.46-.25,1.83-.69,6.39-7.55,15-11.1,24.19-13.71,1.2-.34,2.76-1.29,3.14-2.33,3-8.33,10.76-8.49,17.46-11.07,4.54-1.74,8.16-5.87,13.34-9.8h14.74c-6.43,18.22-6.77,36.4-5,54.75Zm-4.85,111.47c-1.82-5.33-5-4.08-7.88-3.82-5.62.51-11.27,1.38-16.86,1.16s-10.77-2.19-13.86-9.28h10.7c5.32,0,10.65.16,16-.16,3.09-.19,6-1.35,5-6.68-9.51.65-19.38,2.27-28.75-1.33-.15-6.21,2.71-8.35,8-8.22,4.32.1,8.66,0,13-.13,3.73-.08,7.18-.67,8.68-6.55H442c.36-6.32,4.23-6.54,7.88-7,3.95-.54,8-.72,11.81-1.74,1.52-.4,2.57-2.61,3.83-4l-1-1.78L444,404.51c0-6.09,3-6.48,7.21-6,4.87.57,10.31,1.94,14.21-3.74-5.47-5.19-14.36.85-19.42-7.6,5.54.53,9.39,1.2,13.21,1.11,1.57,0,3.09-1.74,4.62-2.68-1.34-1.12-2.52-2.72-4.07-3.25a103.74,103.74,0,0,0-10.2-2.45c3.36-6.42,12.95.67,14.31-8.94l-13.71-1.34c2.22-6.73,12.19.7,13.08-8.27l-15-3.5c3.78-6.71,13.39.85,14.84-8.71-2.67-.36-4.91-.58-7.11-1s-4.61-1.05-7.93-1.82c5-3.83,12.56,1,13.85-6.85-3.85-4.22-10.49,2-13.51-4.66l12.95-3.18c-1.87-8.29-10.47-.88-12.62-6.7,3.51-3.32,9.3,2.34,12-5l-11.18-4.37c3.19-4.87,10.69.47,13-7.26a21.06,21.06,0,0,0-17.23.7,5,5,0,0,0-2.29,3.09c-1,4.75-2.49,9.56-2.45,14.34.07,7.72,2,15.48,1.61,23.13-.44,7.89,2.28,15.56.74,23.4-.88,4.46-1.56,9-2.45,13.43-1.34,6.69-3,13.33-4.13,20.05-1.2,7-2,14.06-2.95,21.1-1.39,10.11-4.65,20.41-3.64,30.28.91,8.8-1,16.87-1.41,25.27-.58,11.73,0,23.06,8.19,32.18-.34,4.16-1.85,8.45-.76,11.92,3.36,10.66,6.36,21.24,6.72,32.54.09,2.61,2.35,5.19,3.73,7.72.92,1.67,2.28,3.12,3,4.85,5.7,13,13.2,15.37,25.14,7.39,9.4-6.29,18.44-13.13,27.5-19.9,1-.77,1.2-2.67,1.87-4.3-5.66-2.66-8.8,1.2-12.09,3.48-7.66,5.32-14.79,11.41-22.6,16.47-7.48,4.85-11.44,2.38-12.82-6.68,7.47-3.89,14.87-7.58,22.09-11.6,2.65-1.47,5-3.67,1.44-7.94-9.56,4.89-18.44,12.54-30.18,12.46-2-10.27-1.92-10.1,6.6-13.61,6.76-2.78,13.33-6,20-9.13,2.45-1.13,5-2.27,3.14-7-11.2,1.4-20.15,10.76-32.46,11.22-.59-2.92-1.08-5.33-1.62-8,1.82-.59,3.08-.94,4.29-1.41,8.38-3.25,16.79-6.41,25.09-9.84,3-1.25,6.33-2.94,2.74-7.69-5.92,2.17-11.78,4.39-17.68,6.45-5.64,2-10.7,7.17-17.47,3.63,1-11.08,1.09-11,10-13.2,6.46-1.58,12.93-3.24,19.23-5.35,3.37-1.13,5.72-3.48,2.8-6.9-10.23,2.45-19.8,5.14-29.55,6.94-6.13,1.13-6.24.54-7.31-7.06,3-.14,6,.09,8.92-.48,7.46-1.48,14.92-3.1,22.25-5.12,2.87-.79,4.4-3.08,1.32-6.55a71.89,71.89,0,0,1-8.14,2.34c-7.19,1.22-14.4,2.73-21.64,3-5.54.24-6.23-1.8-4.34-8.41,24.89.52,28.16.11,33.21-4.19-1.79-4.47-5.52-2.55-8.59-2.53-6.66,0-13.32.49-20,.27-2.69-.09-5.44-1.67-4.69-5.15.67-3.09,3.15-2.16,5.58-2.17,8.58,0,17.18-.42,25.75-1.06,3.14-.24,5.72-1.88,3.72-6.66-2.45.38-4.94,1-7.45,1.11-6.3.37-12.69,1.26-18.9.6-7.34-.78-9.3-5-7-12.87A45.76,45.76,0,0,0,475.24,452.74ZM386.93,419.3c-9.39,9.31-8.29,21.15-8.37,32.72,0,2.23.27,4.74-.61,6.65-2,4.35-4,8.3-1.15,13.18.76,1.32-.33,3.79-.75,5.7-.56,2.59-1.85,5.15-1.83,7.72,0,7.93.42,15.88.95,23.79s1.57,15.66,2.11,23.5c.68,9.84.08,19.89,5.78,28.74a8.54,8.54,0,0,1,1.16,3.75c.62,7.21,1.07,14.44,1.65,21.66.7,8.53,5.12,12.69,13.65,12.57,9.14-.13,17.73-2.72,26-6.53,1-.46,1.6-1.8,2.49-2.86-3.35-4.62-6.83-1.66-10.08-1-6.15,1.26-12.24,3.17-18.45,3.74-5.39.5-6.06-1-6.3-8.62,1.84-.33,3.78-.55,5.65-1,8-2.07,16.1-4.12,24.09-6.39,2.61-.74,5-2.15,3.25-6.43a57.58,57.58,0,0,0-6.33.88c-6.77,1.71-13.42,4-20.27,5.25-8.07,1.44-9.48-.54-7.92-9.24,30.24-7.28,30.24-7.28,30.57-13.93-7.83,1.86-15.42,3.84-23.09,5.46-8.76,1.84-9.2,1.46-13.13-8.06,8.53-1.88,17-3.69,25.39-5.6,2.85-.65,6.17-1.09,4.84-6-10.6-1.48-20.4,4.61-30.75,4.09-3.46-10.46-3.06-11,6.61-12.95,6.19-1.24,12.35-2.75,18.41-4.51,3.23-.93,6-2.76,4.3-7.7-10.55,2.24-20.3,7.18-32.2,5.87-.39-3.4-.76-6.74-1.14-10,29.18-5.27,29.18-5.27,31.93-11.1-10.76-2.84-20.53,4.82-31.31,3.13V494.33c6.16-.43,11.79-.5,17.32-1.31,5.32-.77,12.1.55,14.39-8.07-11.31.15-21.88,5-33.38.84,1.16-3.47,2.17-6.46,2.86-8.55,9.64-1.05,18.23-1.9,26.79-3,3.51-.43,6.51-1.63,4.74-6.75-10.92-.33-22,6.38-33.43-.66,2-3.9,3.63-7,5.07-9.8,23.3,1.43,27.27.57,29.75-6.88-10.26-.48-20.59,3.59-31.23-1.33.33-2.54.69-5.26,1.14-8.73,6,.57,11.29,1.15,16.55,1.51a99.78,99.78,0,0,0,12.93.36c2.67-.16,5.26-1.4,4.51-5.32l-33.21-3.24c4.34-11.4,5.38-12.05,14.63-10.29,5.56,1.07,11.11,2.23,16.7,3,2.75.39,5.4-.19,5.21-5.07l-23.83-4.78c-9.48-1.91-10.56-4.05-6.82-13.46,23.87,5.52,26.6,5.78,33,2.71-8.67-8.67-22.17-3.3-30.64-10.79,3.24-9.21,3.78-9.32,11.89-7.52A141,141,0,0,0,425.58,390c1.35.11,2.9-2.17,5.56-4.33-10.93-3.19-21.23-1.55-29.07-7.91.34-4.69,2.78-5.86,6.72-5.57,6,.45,12,.74,18,.77,2,0,4-1,8.23-2.06-10.61-8.15-23.48-.58-31.79-8.51,1.53-4.9,4.3-6.14,8.59-5.65,5.61.65,11.29.87,16.94,1.08,3,.11,5.24-1,4.3-5.7-4.27-.37-8.82-.75-13.36-1.16S410,351.5,406,345.1c5.76,0,10,.09,14.15,0,4-.11,9.07,2.91,12.67-4.56l-19.42-2.83c0-.71,0-1.43,0-2.14l19.5-4.76c-1.45-1.79-2.16-3.56-3.33-4-8.07-2.71-22.45,2.66-26.44,10-4.58,8.45-5.06,18.15-5.82,27.28-.64,7.63-1.89,14.46-5.51,21.13C385.94,395.88,380.85,406.77,386.93,419.3ZM585.41,632.55c2.2-.81,3.76-1.36,5.3-2,8.37-3.24,17-6,25-9.89,7-3.42,7.4-6.18,4.73-13.88-.4-1.13-.63-2.33-1-3.66,7.63-3.32,13-7.86,11.82-17.09,12.5-4.22,21.86-11.33,25.67-24.47-4.83-2.65-6.05.87-8.22,3.29-3.71,4.15-7.31,8.86-12,11.6-11.54,6.76-23.8,12-37.71,11.37a14,14,0,0,0-5.91.67c-1.66.7-2.88,2.46-5.93,5.26,13.81,1.38,24.92-.74,36.36-1.55a30.23,30.23,0,0,1-9.12,5.31c-10.24,4-20.54,7.74-30.78,11.67-2.8,1.07-5.6,2.35-3.74,6.86,11.69-.46,20.64-9.12,32.61-10.48.94,2.39,1.94,5,3.31,8.43-19.76,8-37.92,17.93-61.23,10.62,1.72,3.41,2.1,5.59,3.11,5.94A78.81,78.81,0,0,0,571,634.07c2.83.46,6.58-1.05,7.43,3,.83,3.86-2,6.3-5.36,7.35a81.5,81.5,0,0,1-14.43,3.47c-6.26.74-12.65.39-18.94,1-3,.28-5.82,1.62-8.61,2.45,1.16,5.47,4.11,4,6.64,4.05a74,74,0,0,1,7.71.9c-2,3.4-3.53,5.62-4.71,8-5.51,11-14.56,16.59-26.58,18.74a67.14,67.14,0,0,1-24.76.09c-3.77-.71-8.53-2.76-11.49,2.31,6.11,4.52,22.1,5.82,33.54,4.83,22.82-2,33.39-18.17,42.72-35.33C576.73,653.28,586.6,647.22,585.41,632.55ZM604.08,473c-1.5-5.44-4.35-5.07-6.93-4.47-4.2,1-8.31,2.35-12.47,3.5-19.11,5.27-37.95,13.15-58.37,5.66-1.52-.56-3.76.85-7.75,1.87,3.53,2.2,5,3.79,6.65,4,9.14,1.29,18.32,2.5,27.53,3.21,3.81.3,6.89.14,10.81,2.45a30.25,30.25,0,0,0,22.11,3.57c13.91-3.17,27.91-5.89,41.85-8.94,1.37-.3,2.51-1.62,4-2.61-3-5.09-7.16-3.71-10.82-2.94q-17.05,3.6-34,7.69c-6.19,1.5-12,1.89-17.77-2.69ZM533.71,587.84c2.18.29,4.07,1,5.81.71,19-3,36.72-9.2,52-21.47a15.26,15.26,0,0,1,6.95-3.32c17.47-2.48,28.43-16.07,45-24.91-4.17-1.25-6.28-2.62-8-2.22a16.51,16.51,0,0,0-6.87,3.81c-12.87,11.5-28,17.66-45,19.53-3.63.4-7.5.78-6.54,6.53.22,1.32-2.23,3.94-4,4.58-10.26,3.77-20.65,7.18-31,10.6C538.83,582.75,534.61,582.26,533.71,587.84Zm162.36-106c-5.44-3.5-9.79-1.87-14.07-.4-14.12,4.85-28.32,9.5-42.28,14.79-6.47,2.46-12.54,6.07-18.59,9.5-1.62.92-2.52,3.11-3.84,4.83,1.51.85,2.27,1.58,2.61,1.42,23.82-10.85,48.5-19.35,73.44-27.14C694.11,484.6,694.61,483.49,696.07,481.84ZM490.13,614.21c5.12,5.19,5.12,5.3,10.1,5.45,16,.47,31.82-1,47.13-6,2.49-.81,7.13-.77,5.8-5-1.25-4-4.93-1.79-7.61-1-14.76,4.38-29.75,6.51-45.18,5.44C497.35,612.85,494.26,613.71,490.13,614.21Zm5.35-38.31c.1.93.21,1.86.32,2.79,7.6,4.76,15.56.73,22.95-1.24,24.53-6.55,31.49-10.37,33.87-17.35-7.19-1.11-12.42,3.93-18.57,5.52-6.74,1.75-13.18,4.62-19.91,6.45C508,573.73,501.71,574.66,495.48,575.9ZM649.84,524c0-.68,0-1.37-.05-2.05-2.27-.48-4.54-1.34-6.8-1.34-3.64,0-7.27.68-10.92.93-10.62.73-21.25,1.27-31.86,2.15-3.26.27-7.66-.28-7.7,5.2,5.28,1.21,45.08-.46,52.61-2.31C646.8,526.15,648.27,524.86,649.84,524Zm54.56-22.57c-3.19-6.64-7.72-5.64-11.56-4.46-11.7,3.6-23.3,7.54-34.84,11.65-1.46.53-2.3,2.83-4.48,5.7C672.68,514.4,686.68,503.67,704.4,501.41ZM911.92,392.68c5,0,9.23-4.07,9.1-8.7-.12-4.32-4.08-7.91-8.67-7.89a8.88,8.88,0,0,0-9,8.72A8.31,8.31,0,0,0,911.92,392.68Z"/><path class="cls-2" d="M511.21,706.91c-.33,3-.59,5.57-.9,8.14-.2,1.65-.55,3.29-.73,5-2.11,19.51,2.33,23.91,22.65,21.7,1.8,9.21,8.93,10,16.61,9.51,4.64-.32,8.74-.59,13.22,2.28,2.85,1.83,7.72.34,11.66.69a72.35,72.35,0,0,1,9.33,1.66c3.52.8,7,1.91,10.48,2.68,6.32,1.37,12.63,3.12,19,3.71,6.08.56,12.31-2.37,18.39,1.12,1.5.86,3.9.26,5.87.14,1.31-.07,2.88-1.1,3.86-.66,11.54,5.19,23.55,0,35.22,1.73,5.5.82,11.09,1.07,16.56,2,7.95,1.38,15.78-.27,23.61-.27,7,0,15.43-1.25,20.72,6.51.93,1.37,4.25,1.32,6.5,1.52,5,.46,10,.64,14.93,1a32.15,32.15,0,0,1,14.9,5c4.69,2.85,10.36,4,15.47,6.26,3.79,1.64,7.18,4.77,11.08,5.52,19.75,3.82,39.73,5.58,59.86,4,1.85-.15,3.57-1.92,6-3.27-4.35-2.79-8.8-4.22-10.67-7.24s-.91-7.44-1.28-12.13c-9.3,3.45-3.55,11.49-6.64,16.63-7.39-3.07-.34-13.2-9.3-16.72-.47,6.08-.88,11.31-1.31,16.86-7.68-1.15-4.88-7.12-5.53-11s-.18-8.07-.2-13.22c-5.3,4.3-5.3,4.3-6.65,21.75h-6.2c.73-8.88,1.42-17.34,2.15-26.23-2.35-2.51-4.7-1-5.6,1.81A78.91,78.91,0,0,0,811.87,776c-.54,3.79-.77,7.62-1.23,12.39-5.9-2.3-5.44-6-5.15-9.49.45-5.31,1.38-10.58,1.66-15.89.12-2.3-.86-4.67-1.51-7.83-6.95,3.92-4.1,9.6-5.11,14-1.08,4.67-1.43,9.51-2.41,16.5-5.85-12.59-4.49-23.8-4.25-35.18-4.83-1.81-6.24,1.27-6.45,4.69-.32,5.31,0,10.66.14,16,.07,2.6.36,5.2-1,8.71-1.24-1.41-3.29-2.68-3.57-4.26-1.42-7.82-2.41-15.72-3.48-23.61-.41-3-.63-6-1.09-10.45-7.29,4.92-5,10.68-5.11,15.44-.12,5.14.9,10.31,1.65,17.77-11.36-11.83-9.16-26.2-13.71-39.06-6.67,5.25-3.73,10.83-3,15.89.79,5.45,2,10.83,3.16,16.58-6.08.48-9.43-1.7-10.37-6.66s-1.19-9.83-1.84-14.74c-.4-3,1.42-6.85-2.8-8.66-3.76,4.34-3.76,4.34-1.94,29.08-4.72,1.91-7-1.34-8-4.74-2.13-7.28-3.58-14.76-5.18-22.19-.34-1.6.23-3.44-.26-5-.44-1.35-1.77-2.4-2.71-3.59-1.07,1-3,2-3.07,3.13a87.91,87.91,0,0,0,.52,11.91c.39,4.22,1,8.42,1.57,12.64-9,.71-9.81.41-10.52-6.58-.46-4.58,0-9.25.12-13.89,0-2.8,1.34-6.23-4-6.94-5.11,8.47-2.53,17.74-2.28,26.67-10.6,4.55-13.79,2.74-14.61-8.39-.27-3.59,0-7.21,0-11.21-3.63-2.23-5.55,0-5.81,3.38-.42,5.56-.11,11.18-.11,17.64-5.51,1-8.32-3.17-9.63-7.24-2.32-7.22-3.51-14.81-5.12-22.25-.39-1.84-.59-3.73-.91-5.79-7.3,3.93-7.22,8.6.05,32.29-9.27,1.77-10.4,1.36-13-7-2-6.29-3.2-12.79-5.27-21.32-2.09,3-4.14,4.55-4.09,6a76,76,0,0,0,1.89,12.77c.73,3.46,1.93,6.81,3,10.35-10.32,1.17-11.18.93-13.37-6.71-1.84-6.38-2.78-13-4.43-19.46-.85-3.3-2.36-6.43-4.07-11-6.3,7-1.44,12.48-1,17.7.44,5.85,2.3,11.59,3.58,17.56-6.1,2.84-9.67.21-11.65-4.49-2.7-6.43-4.71-13.14-7-19.74-.91-2.66-1.72-5.37-2.71-8.46-4.46,4.08-4.46,4.08,2.64,31.25a54.13,54.13,0,0,1-7.38,1.29c-7.33.31-9.44-1.53-10.18-9-.37-3.64.09-7.38-.44-11-.33-2.16-1.86-4.15-3.81-8.23-4.25,9.35-.81,16.8-2.63,23.61-9.33,0-12.59-2.57-14.75-11.11-1.16-4.57-.17-10-4.81-14.14-5.81,6.94,0,13.73-1.21,21.16l-8.15,1c-7.44-6.26-1.12-16.47-8.73-22.61-4.73,5.82-.83,12.11-2.49,18.34H540.71c-4.47-9.73-2.68-20.26-3.84-32.2-2.92,2.56-4.92,3.46-5.29,4.81-.69,2.51-.52,5.28-.54,7.93-.06,11.31,0,11.31-12.46,11.17-6.07-10.54-.71-21.13-.15-31.76,9.08-3.43,17.9-6.3,26.32-10.06s16.52-8.43,25.46-13.07c.67,3.5,1.23,6,1.6,8.49,1,6.62,4.81,10.65,11,13a105.87,105.87,0,0,0,24.73,6.3c13.37,1.71,26.68,4,40.2,4.32,10.87.26,21.79-.51,32.62.27,6.68.49,13.19,3.15,19.83,4.58A47.08,47.08,0,0,0,710,719c8.92,0,17.92-1,26.74-.16,5.94.57,11.69,3.48,17.43,5.62,10.34,3.85,20.6,7.91,30.9,11.85,1.22.47,2.85.35,3.75,1.13,10.55,9.14,24.45,12.42,35.6,20.33,5.73,4.06,12,6,18.25,8.57,7.53,3,14.92,1.54,22.38,1.6.6,0,1.2-1.39,2.7-3.23L856,760.54c-.64-4.9-1.33-10.12-2.12-16.13-8.36,4.19-3.79,11.39-7.77,16.29-.53-6-1.06-11.9-1.61-18-5.4,2.33-5.4,2.33-6.53,15-6-.27-4.73-5-5.34-8.48-.57-3.31,2.32-7.3-1.66-10-6.72,1-2.65,8.59-7.4,10.94-3.66-3.22-1.94-7.27-1.79-11,.13-3.28,3.35-6.92-1.16-10.05-6.35,3.21-4.14,10-6.41,14.74-6.58-2.88-7.51-4.65-6.32-12,.49-3,3.18-6.32-1.52-8.92-6.08,3.05-4.05,9.81-6.42,15.15-10.31-5.29-.86-15-5.52-21.56-8.17,1-3,9.83-8,13.4-5.43-1.42-4.34-6.13-4.12-10.1.2-3.43,2.55-7.22-2.82-9.48-5.11,4-2,10.76-5.3,15.72-7.86-5.63,1.19-15.61-5-21.31-5.27,1.68-3.72,5.76-4.33,8.72-.82,4-2.31,6.21-7.36,4.4V694.16c-2.93,2.86-5.09,4-5.5,5.56-.9,3.51-.63,7.3-1.44,10.84-.36,1.57-2.17,2.82-3.32,4.22-1.28-1.58-3.43-3-3.67-4.76-.4-2.86.64-5.89.65-8.86,0-1.69-.8-3.39-1.42-5.75-6.91,3.93-5.39,10.1-6.53,16l-6.56.73c.64-7.76,1.2-14.68,1.9-23.24-10.91,5.59-3.88,17.71-12.16,23-5-6.7.53-14.78-3.41-21.12-3.75,1.54-3.75,1.54-5.7,20.39-7.07,1.39-7.92,1.07-8.35-4.79-.23-3.25.83-6.58.78-9.87,0-1.88-1.13-3.75-2.08-6.64-6.28,5.9-4.79,12.69-6,19-7.69-.21-6.17-5.88-6.72-9.93s-.71-8.43-1.05-12.86c-5.31,1.76-5.31,1.76-5.84,20.05-6.39-2.72-4.72-8.67-6.27-13.15-1.61-4.66,1-10.85-5.74-15-4.36,9.75,1.58,18.52.84,27.28-7.7.64-8.73.25-10.1-5.53-1.15-4.85-1.54-9.88-2.64-14.74-.43-1.88-1.89-3.52-3.78-6.85-4.74,10.49.83,18.5.52,26.77-6.66,2.22-7.66,2.05-9-3.56S643,690.19,642,684.63c-.51-2.81-1.47-5.31-6.37-3.53.47,3.86,1,8,1.46,12.11.48,3.93,1,7.86,1.5,12.37l-8.15.73c-3.87-8.47,1-18.11-3.84-25.93-4.58.15-4.44,3.14-4.48,5.68-.07,4.33.26,8.66.22,13,0,3-1.26,5.77-4.63,4.9-2.09-.54-4.89-2.76-5.25-4.64-.81-4.17-.26-8.6-.31-12.92,0-2.52.81-5.53-4.52-6.41-.68,3.26-1.58,6.57-2,9.94-.47,3.59-.5,7.24-.71,10.74-9.42,1.74-12.07.11-13.28-8.16-.38-2.63,0-5.38-.47-8-.38-2-1.58-3.9-2.74-6.58-6.1,5.32-1.78,11.58-3.79,16.52-6.72-2.45-7.37-4.13-6.82-17.92a376.6,376.6,0,0,0,78.85-68.48s.92.05,1.07.42c5.52,13.15,15.76,18.84,29.6,20.08,17.23,1.53,34.35,4.18,51.57,5.78,27,2.52,48.76,14.73,66.11,35.15,16.59,19.53,32.87,39.32,49.41,58.9,6.66,7.89,13.75,15.41,20.45,23.27,19.64,23,38.95,46.38,58.87,69.19,9.82,11.25,19.94,22.25,32.55,30.83,8.47,5.76,15.88,13.13,23.53,20,3.4,3.08,6.58,6.65,5.13,12.09-5,2-9.36.08-13.59-1.71A257.31,257.31,0,0,1,927,850.81c-10.92-8.17-21.48-16.89-31.67-26-5.41-4.82-9.71-10.89-14.48-16.43-1.8-2.1-3.5-4.29-5.24-6.43l-2.08.8c0,2-.82,4.58.14,5.81,5.68,7.32,10.93,15.33,17.91,21.23,15.76,13.3,32.4,25.56,48.77,38.13,6,4.59,15.06,21.35,15.81,30.91-11.33-5-22.18-9.61-31.89-16.55-20-14.26-37.56-30.82-50.88-51.68-5.9-9.25-12.23-18.24-18.53-27.24-1.38-2-3.47-3.43-5.17-5.06-4.34,3.58-1.63,6.14-.19,8.44C869,838,890.13,868,921.83,888.28,929.55,893.22,932,899.81,933,909c-5.91-.27-10.59-2.55-15.11-5-35.34-18.87-60.82-47-78.07-82.95-2.16-4.5-4-9.18-6.25-13.61-.92-1.78-2.69-3.12-5.93-4,0,2-.6,4.33.11,6.08a196.46,196.46,0,0,0,9,20C850.14,854,866,876.63,889.2,892.87c8.36,5.84,9.87,13.38,8.34,23.53-11.7-2.66-21.61-8.14-29.15-16.43-10-11-19.13-23-27.95-35.09a251.38,251.38,0,0,1-31-56.9c-.82-2.11-2.52-3.87-4.3-6.53-3.91,5.33-1.53,8.86-.15,12.41,8.5,21.9,20.66,41.76,34.25,60.77,5.8,8.11,12,16,18.41,23.61,3.4,4,4.16,8.1,2.67,13.72-9.28-2.41-16.76-7.9-23-14.38-21.64-22.5-39.48-47.72-51.62-76.66-2-4.86-2.78-10.25-4.38-15.32-1-3.23-2.49-6.32-4.55-11.42-1.79,3.6-3.26,5.12-3,6.22,2.06,8.37,3.27,17.23,7,24.84,7,14.32,15.45,27.91,23.33,41.8,1.58,2.8,4.39,5.21,2.13,9-3.13,5.26-7.95,6.19-12.32,1.62a73.45,73.45,0,0,1-9-11.9c-12.23-19.63-21.45-40.52-25.94-63.35-.37-1.88-2.12-3.49-4.35-7-1,3.77-2.08,5.58-1.8,7.14,1.13,6.19,2,12.58,4.22,18.38,5.08,13,10.83,25.74,16.6,38.46,1.4,3.07,1.85,5.44-.36,8.22-2,2.56-3.69,5.42-6.43,9.53-3-4-6-7-7.81-10.59-9.79-19.77-17.57-40.23-20.19-62.35a77.29,77.29,0,0,0-1.47-7.84c-.13-.54-.82-.95-1.49-1.67-4.16.45-4.22,3.55-3.59,6.53,2.74,13,5.29,26,8.68,38.85,1.94,7.31,5.37,14.21,8.42,22l-9.82,5.29a183.9,183.9,0,0,1-16.26-36.92c-3.84-12.39-5.9-25.33-8.79-38.19-5.11,1.35-4.22,4.66-4.06,7.44A124.92,124.92,0,0,0,721.85,845c1.37,3,2.6,6.07,4.61,10.75l-6.23,5.7c-7.94-1-9.87-6-11.87-11a292.89,292.89,0,0,1-15.06-52.74c-.67-3.49-1.75-6.91-2.6-10.23-4.66-.22-5.56,1.94-5,5,1.11,5.55,2.44,11.06,3.67,16.58.78,3.5,1.55,7,2.86,12.88-3.58-2.26-5.63-3-6.82-4.41-6.37-7.71-8.7-17.06-10.45-26.64-.56-3,.13-6.75-3.39-8.8-4.86,6.78-4.52,9.28,4.62,35.39-5.08,2.39-8.25-.42-10.92-4.13-4.89-6.8-8.9-14-10.25-22.5-.55-3.41-1.79-6.71-3-11.21-7.4,5.78-3.14,11.5-2.31,16.21,1,5.45,3.8,10.57,5.84,15.87-7,3.6-8.7,3.55-12.34-2.84-3.1-5.45-5.21-11.47-7.72-17.26-1.12-2.57-2.14-5.19-3.41-8.26-4.33,5.05-4.33,5.05,2.86,25.87-8,4.31-10.23,3.93-14-3.57-2.81-5.64-4.84-11.65-7.38-17.43-.92-2.09-2.31-4-4.41-7.54-4.28,9.84,1.5,15.93,2.83,23.77l-9.38,6.43C590,802,593.71,787,587.49,776c-5.06,4.89-5,5.31,1.07,28.92-8.1,1.6-12.28-.14-15-6.92-2-4.93-3.19-10.16-5-15.18a75.54,75.54,0,0,0-3.67-7.44c-6.28,7.54.74,13.58-.18,19.91-4.84,1-8.29-.6-10.07-4.62-2.14-4.82-3.66-9.92-5.4-14.91-.91-2.61-1.73-5.25-3.21-9.77-6.36,9.42-.8,16.34-.38,23.31-10.5,1.94-12.42,1.08-15.9-8.11-1.4-3.7-2-7.69-3.15-11.51-.69-2.38-1.61-4.69-2.95-8.55-7,9-.4,16.26-.34,23.47-8.23,2.25-14.07-.47-17.36-9.25-2.19-5.87-2.94-12.27-4.57-18.37a9.79,9.79,0,0,0-3.75-5.1c-4.69,8.26.91,15.83.9,23.64-7.86.7-11.2-1-12.9-8a117.27,117.27,0,0,1-2.28-16.76c-.32-3.51-.06-7.07-.06-10.34-5.15-1.17-6.05,1.24-6.09,4.16-.1,7.94,0,15.87,0,24.18-9.69,3.15-14.2.76-14.74-10.19-.32-6.51,1.51-13.11,2.24-19.69a64.67,64.67,0,0,0,0-6.74c-7.84,4.58-9.2,9.66-9.07,31a10.54,10.54,0,0,1-2.26,1.68c-9.51,3.82-14.18.8-13.78-9.43.15-3.9,1.88-7.72,2.73-11.6.46-2,.59-4.18,1-7.47-9.76,3.27-7.6,11.92-11.62,18.09-11.16,1.35-22.12,5.39-31.44,13.62-2.53,2.24-6.6,3.14-10.11,3.76-10.09,1.75-20.25,3-31.2,4.63,1-1.32,1.59-2.73,2.66-3.47,13.05-9.06,25-19.58,39.95-26,9.35-4,17.58-10.67,26.38-16,3.39-2.06,6.78-4.55,10.51-5.53C462.29,719.11,486.14,713.23,511.21,706.91Z"/><path class="cls-2" d="M531.48,188.31c2.69.32,5.42,1.08,8.06.86,4.3-.38,8.59-2.21,12.77-1.92a28,28,0,0,1,11.77,4c4.22,2.49,4.42,4.14,4.73,12.33-4.36.33-8.83,1-13.29.95-11.62,0-23.24-.37-34.86-.45-1.5,0-3,.75-4.61,1.19,0,4.82,3,5.09,6,5,5.3-.14,10.59-.52,15.9-.66,9.4-.25,14.75,4.77,17.17,13.46.7,2.52,1.36,5,2.16,8.06-6.58,2.73-12.63,1.16-18.78.28-9.85-1.42-19.74-2.63-29.66-3.34-3.11-.22-6.5,1.1-9.48,2.37-1.49.64-2.36,2.74-4.23,5.09,2.6.49,4.07,1.11,5.48,1,6.21-.58,12.39-1.81,18.6-2,5.42-.12,10.25,1.09,12.53,7.61,1.06,3,5.41,4.76,7.64,7.58,1.68,2.14,2.36,5.08,3.49,7.66a50.53,50.53,0,0,1-7,2.57c-2.24.47-5-.51-6.91.47-11.41,6-20.65.09-30.39-4.63-3.37-1.63-7.56-1.68-11.41-2.14a3.75,3.75,0,0,0-3.32,2.1c12.48,6.74,25.76,9.41,35.92,21.66-5.7,1.13-9.68,2.5-13.69,2.6-9.65.24-19.32-.22-29-.19-8.32,0-16.65.14-24.95.63-2.63.16-5.18,1.64-8.34,2.71,4.46,7.5,10.91.64,15.38,4.77-5.87,4.59-12.71,5.21-19.59,5.15-5,0-9.95-1-14.93-1.11-1.59,0-3.19,1.53-4.79,2.36,1.43,1.44,2.64,3.73,4.32,4.15,3.68.94,7.6.92,12.75,1.43-10.26,12.41-22.4,3.45-33.12,5.07,2.6,4.83,2.6,4.83,9.34,9-6.62,9.5-15.72-.82-23.15,3.15-1.55,7.38,7.23,3.8,8.86,8.17-4.87,5.22-10.47,4.05-16.08,1.13-1.51,6.35-1.51,6.35,7.48,10.56-3.45,6.67-7,7.26-25.73,4a57.1,57.1,0,0,1,3.23-7.14c7.78-12.42,15.29-25,23.67-37,11.71-16.77,27-30.17,42.42-43.48,26.45-22.83,52.33-46.33,78.9-69,8.28-7.07,17.79-12.84,27.21-18.4,6.7-3.95,13.32-1.19,17.78,6,2.3,3.74,1.68,6.31-2.62,7.69-4.09,1.31-8.44,1.8-12.67,2.67l-11.14,2.33C531.41,185.87,531.45,187.09,531.48,188.31Z"/><path class="cls-2" d="M259,818.05c23.35-20.38,46.7-40.76,70.92-61.88,1.64,4,3.2,7.76,5.17,12.51-22.72,20.48-51.61,31.58-74.83,51.05Z"/><path class="cls-2" d="M480,341.45c.42,3.78.83,7.57,1.42,12.91l-6.23-3.86c1.72-3.23,3.3-6.2,4.91-9.2Z"/><path class="cls-2" d="M475.43,1069.46c-.83,4.32-1.57,8.1-2.39,12.35H312c-4.15-9.94-2.83-12.61,6.86-12.79,17-.31,34-.3,51-.42,11.37-.08,11.62-.24,11.3-11.95-.18-6.32-.56-12.65-1.28-18.93s-1.8-7.33-8.3-7.24c-11,.15-22,1-32.94.92a48,48,0,0,1-16.42-2.8c-19.06-7.36-19.64-33.84-12.32-45.31a22.26,22.26,0,0,1,11.45-8.73A95.33,95.33,0,0,1,344.88,971q46.92-1.61,93.86-2.33c22.95-.35,39.22,22.37,32.14,44.24-3,9.16-12.14,15.6-24.13,16.16-13,.61-25.95.81-38.93,1-9.74.11-11.64,1.86-11.35,11.75.15,5,.5,10,.69,15,.35,9.3.49,9.45,9.6,9.74q30.45,1,60.89,2C469.9,1068.53,472.14,1069,475.43,1069.46Zm-88.32-52.87v-.83c4.66,0,9.32,0,14,0,11.66-.17,23.32-.22,35-.65,9.08-.33,16.08-6.56,16.63-14.22s-5.8-14.29-15.17-15.6a53.06,53.06,0,0,0-8-.23q-27,.29-53.94.63c-12,.15-24,.21-36,.6-7.1.22-14.57,8.28-14.54,15.12,0,7.44,7.54,15.13,15.08,15.17C355.81,1016.65,371.46,1016.59,387.11,1016.59Z"/><path class="cls-2" d="M710.82,1046.61v38l-15.45,1.09v-24c-5.17-.35-9.33-1-13.47-.87q-63.37,1.65-126.76,3.47c-3.53.1-7.07,0-11.84,0,.57-5.3,1-9,1.45-13.54Z"/><path class="cls-2" d="M947,1064.33v12.77l-160.1,4.33c-.78-11.53-1.52-22.28-2.28-33.49H799v20.14c25.12,1.58,49.55-1,74-1.54C897.25,1066.06,921.46,1065.11,947,1064.33Z"/><path class="cls-2" d="M647.77,1027.53V961.65c12.11-1.56,14.91.67,15.21,11.84.13,4.58,0,9.17,0,13.93,8.59,2.85,16.14,1,23.56.5,3.3-.23,4.83-3.14,4.81-6.57,0-6.6,0-13.19,0-20.67,4.52-4.34,9.82-.82,15.18-.27v66.43l-12.85,1.51c-.71-8.19-1.35-15.6-2-23.34-8,0-15.2-.13-22.42.06-3.92.1-5.93,2.45-6,6.46-.15,5.25-.44,10.48-.73,17Z"/><path class="cls-2" d="M610.41,962.64c0,18.2,0,36.45,0,54.71,0,10.52-.28,11-10.38,11.32-16.65.49-33.31.58-50,.93-4.69.1-7.91-1.32-7.92-6.59,0-19.61,0-39.22,0-59.42,4.7-1.41,9.27-2.83,13.92.23-2.92,13.58-1.72,15,12.48,14.56,6.66-.2,13.31-.65,20-1.09,7.08-.46,7.92-1.29,8.79-8C598.5,959.8,600.5,958.78,610.41,962.64Zm-53,29.43c.16,9-3.74,16.19-.76,23.94H594.9c2.62-8.22,2-15.87.07-23.94Z"/><path class="cls-2" d="M784.35,1016h98.53v10h-43c-.54,6.52-1,11.68-1.5,18l-12.4,1.06c-.23-4-.44-7.2-.59-10.37-.37-7.37-1.29-8.51-8.8-9q-13.44-.84-26.91-1.12C784.77,1024.48,783.3,1022,784.35,1016Z"/><path class="cls-2" d="M827.56,995c-8.65,0-17.32-.4-25.94.12-7.18.44-11.13-3-14-8.86-7.36-14.82.68-28.82,17.29-29.26,18.62-.5,37.26-.55,55.89-.53,9.63,0,18.05,9.15,18.76,19.71.59,9-5.15,16.82-15.2,17.69-12.17,1.06-24.5.25-36.76.25C827.57,994.45,827.57,994.74,827.56,995Zm3.69-9.28v0c4.32,0,8.63,0,13,0,5,0,10,.12,14.93-.2,4.41-.28,7.54-2.76,8.41-7.17s-2.43-6.64-5.82-8.16a20,20,0,0,0-7.56-1.91q-23.42-.26-46.82,0c-6.16.06-10.5,4.28-10.52,9.49,0,4.92,3.48,7.74,10.52,7.92C815.31,985.91,823.28,985.75,831.25,985.75Z"/><path class="cls-2" d="M944,956.84v77.94h-12c0-8.32.13-15.88,0-23.44-.17-8.24-1.73-9.77-9.94-10.3-5.27-.34-10.54-.55-15.65-.82-2.09-10.06-1.31-11.29,7.24-12,3.31-.26,6.66-.19,10-.6,6.23-.77,7.88-2.39,8.52-8.87.5-4.95.33-10,.72-14.93C933.65,953.82,935,953.11,944,956.84Z"/><path d="M475.24,452.74a45.76,45.76,0,0,1-37.89.18c-2.34,7.88-.38,12.09,7,12.87,6.21.66,12.6-.23,18.9-.6,2.51-.14,5-.73,7.45-1.11,2,4.78-.58,6.42-3.72,6.66-8.57.64-17.17,1-25.75,1.06-2.43,0-4.91-.92-5.58,2.17-.75,3.48,2,5.06,4.69,5.15,6.64.22,13.3-.22,20-.27,3.07,0,6.8-1.94,8.59,2.53-5.05,4.3-8.32,4.71-33.21,4.19-1.89,6.61-1.2,8.65,4.34,8.41,7.24-.31,14.45-1.82,21.64-3a71.89,71.89,0,0,0,8.14-2.34c3.08,3.47,1.55,5.76-1.32,6.55-7.33,2-14.79,3.64-22.25,5.12-2.88.57-5.91.34-8.92.48,1.07,7.6,1.18,8.19,7.31,7.06,9.75-1.8,19.32-4.49,29.55-6.94,2.92,3.42.57,5.77-2.8,6.9-6.3,2.11-12.77,3.77-19.23,5.35-8.89,2.16-9,2.12-10,13.2,6.77,3.54,11.83-1.67,17.47-3.63,5.9-2.06,11.76-4.28,17.68-6.45,3.59,4.75.27,6.44-2.74,7.69-8.3,3.43-16.71,6.59-25.09,9.84-1.21.47-2.47.82-4.29,1.41.54,2.64,1,5.05,1.62,8,12.31-.46,21.26-9.82,32.46-11.22,1.87,4.75-.69,5.89-3.14,7-6.64,3.09-13.21,6.35-20,9.13-8.52,3.51-8.59,3.34-6.6,13.61,11.74.08,20.62-7.57,30.18-12.46,3.58,4.27,1.21,6.47-1.44,7.94-7.22,4-14.62,7.71-22.09,11.6,1.38,9.06,5.34,11.53,12.82,6.68,7.81-5.06,14.94-11.15,22.6-16.47,3.29-2.28,6.43-6.14,12.09-3.48-.67,1.63-.84,3.53-1.87,4.3-9.06,6.77-18.1,13.61-27.5,19.9-11.94,8-19.44,5.56-25.14-7.39-.76-1.73-2.12-3.18-3-4.85-1.38-2.53-3.64-5.11-3.73-7.72-.36-11.3-3.36-21.88-6.72-32.54-1.09-3.47.42-7.76.76-11.92-8.15-9.12-8.77-20.45-8.19-32.18.41-8.4,2.32-16.47,1.41-25.27-1-9.87,2.25-20.17,3.64-30.28,1-7,1.75-14.1,2.95-21.1,1.16-6.72,2.79-13.36,4.13-20.05.89-4.46,1.57-9,2.45-13.43,1.54-7.84-1.18-15.51-.74-23.4.44-7.65-1.54-15.41-1.61-23.13,0-4.78,1.42-9.59,2.45-14.34a5,5,0,0,1,2.29-3.09,21.06,21.06,0,0,1,17.23-.7c-2.27,7.73-9.77,2.39-13,7.26l11.18,4.37c-2.67,7.36-8.46,1.7-12,5,2.15,5.82,10.75-1.59,12.62,6.7l-12.95,3.18c3,6.63,9.66.44,13.51,4.66-1.29,7.86-8.85,3-13.85,6.85,3.32.77,5.61,1.39,7.93,1.82s4.44.63,7.11,1c-1.45,9.56-11.06,2-14.84,8.71l15,3.5c-.89,9-10.86,1.54-13.08,8.27L463.91,371c-1.36,9.61-11,2.52-14.31,8.94a103.74,103.74,0,0,1,10.2,2.45c1.55.53,2.73,2.13,4.07,3.25-1.53.94-3.05,2.64-4.62,2.68-3.82.09-7.67-.58-13.21-1.11,5.06,8.45,13.95,2.41,19.42,7.6-3.9,5.68-9.34,4.31-14.21,3.74-4.25-.5-7.21-.11-7.21,6l20.47-1.33,1,1.78c-1.26,1.39-2.31,3.6-3.83,4-3.82,1-7.86,1.2-11.81,1.74-3.65.49-7.52.71-7.88,7h27.18c-1.5,5.88-4.95,6.47-8.68,6.55-4.33.1-8.67.23-13,.13-5.26-.13-8.12,2-8,8.22,9.37,3.6,19.24,2,28.75,1.33,1,5.33-1.91,6.49-5,6.68-5.3.32-10.63.14-16,.16h-10.7c3.09,7.09,8.25,9.06,13.86,9.28s11.24-.65,16.86-1.16C470.28,448.66,473.42,447.41,475.24,452.74Z"/><path d="M386.93,419.3c-6.08-12.53-1-23.42,4.79-34.05,3.62-6.67,4.87-13.5,5.51-21.13.76-9.13,1.24-18.83,5.82-27.28,4-7.36,18.37-12.73,26.44-10,1.17.4,1.88,2.17,3.33,4l-19.5,4.76c0,.71,0,1.43,0,2.14l19.42,2.83c-3.6,7.47-8.64,4.45-12.67,4.56-4.19.12-8.39,0-14.15,0,4,6.4,9.14,5.46,13.71,5.87s9.09.79,13.36,1.16c.94,4.69-1.25,5.81-4.3,5.7-5.65-.21-11.33-.43-16.94-1.08-4.29-.49-7.06.75-8.59,5.65,8.31,7.93,21.18.36,31.79,8.51-4.2,1.09-6.22,2.07-8.23,2.06-6,0-12-.32-18-.77-3.94-.29-6.38.88-6.72,5.57,7.84,6.36,18.14,4.72,29.07,7.91-2.66,2.16-4.21,4.44-5.56,4.33a141,141,0,0,1-18.64-2.75c-8.11-1.8-8.65-1.69-11.89,7.52,8.47,7.49,22,2.12,30.64,10.79-6.36,3.07-9.09,2.81-33-2.71-3.74,9.41-2.66,11.55,6.82,13.46l23.83,4.78c.19,4.88-2.46,5.46-5.21,5.07-5.59-.79-11.14-1.95-16.7-3-9.25-1.76-10.29-1.11-14.63,10.29l33.21,3.24c.75,3.92-1.84,5.16-4.51,5.32a99.78,99.78,0,0,1-12.93-.36c-5.26-.36-10.51-.94-16.55-1.51-.45,3.47-.81,6.19-1.14,8.73,10.64,4.92,21,.85,31.23,1.33-2.48,7.45-6.45,8.31-29.75,6.88-1.44,2.8-3,5.9-5.07,9.8,11.41,7,22.51.33,33.43.66,1.77,5.12-1.23,6.32-4.74,6.75-8.56,1.06-17.15,1.91-26.79,3-.69,2.09-1.7,5.08-2.86,8.55,11.5,4.14,22.07-.69,33.38-.84-2.29,8.62-9.07,7.3-14.39,8.07-5.53.81-11.16.88-17.32,1.31v11.42c10.78,1.69,20.55-6,31.31-3.13-2.75,5.83-2.75,5.83-31.93,11.1.38,3.27.75,6.61,1.14,10,11.9,1.31,21.65-3.63,32.2-5.87,1.72,4.94-1.07,6.77-4.3,7.7-6.06,1.76-12.22,3.27-18.41,4.51C382.38,532,382,532.56,385.44,543c10.35.52,20.15-5.57,30.75-4.09,1.33,4.9-2,5.34-4.84,6-8.42,1.91-16.86,3.72-25.39,5.6,3.93,9.52,4.37,9.9,13.13,8.06,7.67-1.62,15.26-3.6,23.09-5.46-.33,6.65-.33,6.65-30.57,13.93-1.56,8.7-.15,10.68,7.92,9.24,6.85-1.22,13.5-3.54,20.27-5.25a57.58,57.58,0,0,1,6.33-.88c1.76,4.28-.64,5.69-3.25,6.43-8,2.27-16,4.32-24.09,6.39-1.87.48-3.81.7-5.65,1,.24,7.66.91,9.12,6.3,8.62,6.21-.57,12.3-2.48,18.45-3.74,3.25-.66,6.73-3.62,10.08,1-.89,1.06-1.49,2.4-2.49,2.86-8.23,3.81-16.82,6.4-26,6.53-8.53.12-12.95-4-13.65-12.57-.58-7.22-1-14.45-1.65-21.66a8.54,8.54,0,0,0-1.16-3.75c-5.7-8.85-5.1-18.9-5.78-28.74-.54-7.84-1.58-15.65-2.11-23.5s-.9-15.86-.95-23.79c0-2.57,1.27-5.13,1.83-7.72.42-1.91,1.51-4.38.75-5.7C374,467,375.93,463,378,458.67c.88-1.91.59-4.42.61-6.65C378.64,440.45,377.54,428.61,386.93,419.3Z"/><path d="M585.41,632.55c1.19,14.67-8.68,20.73-31.29,22.3-9.33,17.16-19.9,33.35-42.72,35.33-11.44,1-27.43-.31-33.54-4.83,3-5.07,7.72-3,11.49-2.31a67.14,67.14,0,0,0,24.76-.09c12-2.15,21.07-7.69,26.58-18.74,1.18-2.37,2.69-4.59,4.71-8a74,74,0,0,0-7.71-.9c-2.53,0-5.48,1.42-6.64-4.05,2.79-.83,5.65-2.17,8.61-2.45,6.29-.57,12.68-.22,18.94-1A81.5,81.5,0,0,0,573,644.39c3.37-1,6.19-3.49,5.36-7.35-.85-4-4.6-2.51-7.43-3a78.81,78.81,0,0,1-13.23-3.48c-1-.35-1.39-2.53-3.11-5.94C577.93,632,596.09,622,615.85,614c-1.37-3.47-2.37-6-3.31-8.43-12,1.36-20.92,10-32.61,10.48-1.86-4.51.94-5.79,3.74-6.86,10.24-3.93,20.54-7.71,30.78-11.67a30.23,30.23,0,0,0,9.12-5.31c-11.44.81-22.55,2.93-36.36,1.55,3-2.8,4.27-4.56,5.93-5.26a14,14,0,0,1,5.91-.67c13.91.61,26.17-4.61,37.71-11.37,4.67-2.74,8.27-7.45,12-11.6,2.17-2.42,3.39-5.94,8.22-3.29-3.81,13.14-13.17,20.25-25.67,24.47,1.21,9.23-4.19,13.77-11.82,17.09.35,1.33.58,2.53,1,3.66,2.67,7.7,2.26,10.46-4.73,13.88-8,3.92-16.64,6.65-25,9.89C589.17,631.19,587.61,631.74,585.41,632.55Z"/><path d="M604.08,473,568.9,483.35c5.75,4.58,11.58,4.19,17.77,2.69q16.94-4.08,34-7.69c3.66-.77,7.83-2.15,10.82,2.94-1.46,1-2.6,2.31-4,2.61-13.94,3.05-27.94,5.77-41.85,8.94a30.25,30.25,0,0,1-22.11-3.57c-3.92-2.31-7-2.15-10.81-2.45-9.21-.71-18.39-1.92-27.53-3.21-1.66-.23-3.12-1.82-6.65-4,4-1,6.23-2.43,7.75-1.87,20.42,7.49,39.26-.39,58.37-5.66,4.16-1.15,8.27-2.52,12.47-3.5C599.73,468,602.58,467.59,604.08,473Z"/><path d="M533.71,587.84c.9-5.58,5.12-5.09,8.38-6.16,10.38-3.42,20.77-6.83,31-10.6,1.73-.64,4.18-3.26,4-4.58-1-5.75,2.91-6.13,6.54-6.53,17-1.87,32.13-8,45-19.53a16.51,16.51,0,0,1,6.87-3.81c1.68-.4,3.79,1,8,2.22-16.6,8.84-27.56,22.43-45,24.91a15.26,15.26,0,0,0-6.95,3.32c-15.23,12.27-32.94,18.46-52,21.47C537.78,588.82,535.89,588.13,533.71,587.84Z"/><path d="M696.07,481.84c-1.46,1.65-2,2.76-2.73,3-24.94,7.79-49.62,16.29-73.44,27.14-.34.16-1.1-.57-2.61-1.42,1.32-1.72,2.22-3.91,3.84-4.83,6-3.43,12.12-7,18.59-9.5,14-5.29,28.16-9.94,42.28-14.79C686.28,480,690.63,478.34,696.07,481.84Z"/><path d="M490.13,614.21c4.13-.5,7.22-1.36,10.24-1.16,15.43,1.07,30.42-1.06,45.18-5.44,2.68-.79,6.36-3,7.61,1,1.33,4.25-3.31,4.21-5.8,5-15.31,5-31.11,6.5-47.13,6C495.25,619.51,495.25,619.4,490.13,614.21Z"/><path d="M495.48,575.9c6.23-1.24,12.55-2.17,18.66-3.83,6.73-1.83,13.17-4.7,19.91-6.45,6.15-1.59,11.38-6.63,18.57-5.52-2.38,7-9.34,10.8-33.87,17.35-7.39,2-15.35,6-22.95,1.24C495.69,577.76,495.58,576.83,495.48,575.9Z"/><path d="M649.84,524c-1.57.88-3,2.17-4.72,2.58-7.53,1.85-47.33,3.52-52.61,2.31,0-5.48,4.44-4.93,7.7-5.2,10.61-.88,21.24-1.42,31.86-2.15,3.65-.25,7.28-.92,10.92-.93,2.26,0,4.53.86,6.8,1.34C649.81,522.61,649.82,523.3,649.84,524Z"/><path d="M704.4,501.41c-17.72,2.26-31.72,13-50.88,12.89,2.18-2.87,3-5.17,4.48-5.7,11.54-4.11,23.14-8.05,34.84-11.65C696.68,495.77,701.21,494.77,704.4,501.41Z"/><path d="M911.92,392.68a8.31,8.31,0,0,1-8.6-7.87,8.88,8.88,0,0,1,9-8.72c4.59,0,8.55,3.57,8.67,7.89C921.15,388.61,916.93,392.65,911.92,392.68Z"/><path d="M387.11,1016.59c-15.65,0-31.3.06-46.95,0-7.54,0-15.05-7.73-15.08-15.17,0-6.84,7.44-14.9,14.54-15.12,12-.39,24-.45,36-.6q27-.36,53.94-.63a53.06,53.06,0,0,1,8,.23c9.37,1.31,15.73,8,15.17,15.6s-7.55,13.89-16.63,14.22c-11.64.43-23.3.48-35,.65-4.66.06-9.32,0-14,0Zm1.25-6.48v-1.34c14,0,28,0,42,0a35.33,35.33,0,0,0,8.92-.77c3.77-1,6.35-3.7,6.46-7.89.11-3.89-2.33-6.4-5.75-7.22a48.76,48.76,0,0,0-11.8-1.32c-27.64.24-55.28.65-82.92,1.07-2.3,0-5.22-.31-6.75.91-2.68,2.12-5.89,5.15-6.23,8.11-.27,2.34,3.05,5.61,5.51,7.55,1.51,1.2,4.38.89,6.65.9C359.06,1010.14,373.71,1010.11,388.36,1010.11Z"/><path d="M557.4,992.07H595c1.95,8.07,2.55,15.72-.07,23.94H556.64C553.66,1008.26,557.56,1001,557.4,992.07Zm5.2,17.49h27.12c-.23-4.06-.42-7.4-.61-10.69H563.5C563.17,1002.83,562.9,1006,562.6,1009.56Z"/><path d="M831.25,985.75c-8,0-15.94.16-23.91,0-7-.18-10.53-3-10.52-7.92,0-5.21,4.36-9.43,10.52-9.49q23.42-.25,46.82,0a20,20,0,0,1,7.56,1.91c3.39,1.52,6.71,3.65,5.82,8.16s-4,6.89-8.41,7.17c-5,.32-10,.18-14.93.2-4.32,0-8.63,0-13,0Zm-27.1-9.56.81,2.15c6.06.15,12.11.35,18.16.43s12,.09,18,0,12,1.84,19.25-1.28c-2.53-1.5-3.59-2.67-4.65-2.68-16.3,0-32.61,0-48.91.18C805.91,975,805,975.77,804.15,976.19Z"/><path class="cls-1" d="M388.36,1010.11c-14.65,0-29.3,0-43.95,0-2.27,0-5.14.3-6.65-.9-2.46-1.94-5.78-5.21-5.51-7.55.34-3,3.55-6,6.23-8.11,1.53-1.22,4.45-.88,6.75-.91,27.64-.42,55.28-.83,82.92-1.07a48.76,48.76,0,0,1,11.8,1.32c3.42.82,5.86,3.33,5.75,7.22-.11,4.19-2.69,6.87-6.46,7.89a35.33,35.33,0,0,1-8.92.77c-14,.07-28,0-42,0Z"/><path class="cls-3" d="M562.6,1009.56c.3-3.57.57-6.73.9-10.69h25.61c.19,3.29.38,6.63.61,10.69Z"/><path class="cls-1" d="M804.15,976.19c.88-.42,1.76-1.19,2.64-1.2,16.3-.14,32.61-.23,48.91-.18,1.06,0,2.12,1.18,4.65,2.68-7.26,3.12-13.36,1.2-19.25,1.28s-12,.07-18,0-12.1-.28-18.16-.43Z"/></g></g></svg>