<svg width="390" height="316" viewBox="0 0 390 316" fill="none" xmlns="http://www.w3.org/2000/svg">
<path d="M100.5 0L123.064 69.4438L196.081 69.4438L137.009 112.362L159.572 181.806L100.5 138.888L41.4276 181.806L63.9912 112.362L4.91882 69.4438L77.9363 69.4438L100.5 0Z" fill="#FFBB0C"/>
<path d="M197 115L219.676 184.444L293.057 184.444L233.69 227.362L256.366 296.806L197 253.888L137.634 296.806L160.31 227.362L100.943 184.444L174.324 184.444L197 115Z" fill="#FFBB0C"/>
<path d="M289.5 0L312.064 69.4438L385.081 69.4438L326.009 112.362L348.572 181.806L289.5 138.888L230.428 181.806L252.991 112.362L193.919 69.4438L266.936 69.4438L289.5 0Z" fill="#FFBB0C"/>
</svg>
