<svg xmlns="http://www.w3.org/2000/svg" viewBox="0 0 259.33 284.14"><defs><style>.cls-1{fill:#007f3c;}.cls-2{fill:none;stroke:#007f3c;stroke-linecap:round;stroke-linejoin:round;stroke-width:5.66px;}.cls-3{font-size:17px;fill:#fff;font-family:Tenada;}</style></defs><g id="Layer_2" data-name="Layer 2"><g id="Layer_1-2" data-name="Layer 1"><path class="cls-1" d="M123.46,106.7a2.32,2.32,0,0,0,.68-1.22c3.6-5.81,7-11.77,10.25-17.77a182.31,182.31,0,0,0,11.55-26,128.91,128.91,0,0,0,6.87-26.55c1-7.2,1.44-14.39-.31-21.52C150.94,7.36,143.31-.89,133.73.08,126,.85,119.28,5.62,117.4,14.62a29.08,29.08,0,0,0-.75,8.3c-1.09-.1-1-.93-1.22-1.5-1.64-4.2-2.88-8.56-5.81-12.17A21.83,21.83,0,0,0,80.33,4.52c-9.47,6.08-12.8,15.54-9.61,27.11,3.67,13.26,10.22,25,18.17,36.15,8.35,11.69,18,22.33,27,33.49a21.19,21.19,0,0,1,2.63,4.37v-2.92q0-30.4-.08-60.81c0-1.42.23-2.53,2-2.48l1.1,1.09q0,29.28,0,58.55c0,1.76.07,3.52.11,5.28a24,24,0,0,0,.35,4.8c.58-.34.67-.88.87-1.35A1.71,1.71,0,0,0,123.46,106.7Z"/><path class="cls-1" d="M225.27,62.13c7.64,5.5,13.3,12.26,14,22.23.56,7.53-1.79,13.7-7.69,18.39-1.2,1-1,1.46-.29,2.46a20,20,0,0,1,3.26,5.46c1.64,4.82,1.33,9.57,0,14.4-3.37,12.36-16.43,20.82-29.06,19a137.83,137.83,0,0,1-26.12-6.8,213.66,213.66,0,0,1-48.27-24.07c-2.89-2-2.94-1.86-.5-4.33a1.59,1.59,0,0,0,.13-.13c2.16-2.75,4.36-5.46,6.46-8.25,10.4-13.76,21.61-26.68,36.16-36.34,9.06-6,18.8-9.59,32.82-9.57C211.33,54.75,218.68,57.39,225.27,62.13Zm-65.18,42.46c12.41-.74,24.82-1.07,37.25-1.19.94,0,1.87-.11,2.81-.18,1.3-.08,2.78-.18,2.76,1.63,0,1.54-1.33,1.72-2.62,1.68-1.69,0-3.39,0-5.08-.06-13.24-.06-26.49-.12-39.71.89-6.18.47-12.35,1.12-18.53,1.71-.59.06-1.35,0-1.56.76s.54,1,1,1.37a197.61,197.61,0,0,0,62.41,27.16c5,1.23,10.16,2.23,15.26.95a22.15,22.15,0,0,0,16.95-24.91,12.19,12.19,0,0,0-4.49-7.6c-1.23-1.06-2.73-.63-4.15-.58-.57,0-1.37.69-1.64-.17s.75-1.07,1.32-1.27a18.65,18.65,0,0,0,6.75-4.26c8.69-8.21,7.91-20.4.79-28.68a38.67,38.67,0,0,0-17.07-11.53c-6.2-2.1-12.59-1.54-18.89-.28-8.22,1.66-15.28,5.74-22,10.61C159.88,79.22,150.43,90,142,101.79c-.55.76-1.17,1.47-1.77,2.19s-1.44,1.19-1.7,2.23C145.72,105.43,152.9,105,160.09,104.59Z"/><path class="cls-1" d="M.64,122.47A48.78,48.78,0,0,1,3.12,97.68,31.65,31.65,0,0,1,15.46,81.34a26.73,26.73,0,0,1,19.61-4.62c9.09,1.39,17.68,4.46,26.21,7.72,12.12,4.63,23.33,11,34.32,17.81,5.59,3.47,10.81,7.48,16.27,11.15.55.38,1.53,1,.61,1.75-3,2.51-5.22,5.72-8,8.38A244.3,244.3,0,0,1,67.65,152.1,134.56,134.56,0,0,1,45.47,164c-4.54,1.8-9.17,3-14.1,2.47-11.75-1.32-19-10.27-18.82-21.61,0-2.73,1.56-5,2.14-7.54A19,19,0,0,1,.64,122.47Zm95-5.29C84.41,119,73.17,120.85,62,122.76c-6.6,1.12-13.17,2.4-19.77,3.55-1.26.22-3.13,1-3.47-.88-.3-1.62,1.68-1.58,2.77-1.78C50.21,122,59,120.47,67.71,119c11.79-2,23.6-3.79,35.4-5.69a3.54,3.54,0,0,0,.68-.31c-.91-1-2.15-1.35-3.12-2A203.39,203.39,0,0,0,71.4,93.79c-11.63-5.58-23.55-10.4-36.32-12.68C25.8,79.46,18,82.81,12.37,89.88c-7.1,8.94-9,19.64-7.75,30.9.93,8.69,10.73,13.62,16.61,13.64.44,0,.88,0,1.32,0s1,.06,1,.75-.63.35-1,.45a5.93,5.93,0,0,0-3.11,2.59c-4.73,6.52-2.6,16.4,4.29,21,6,4,12.18,3.59,18.51,1.27,8.52-3.13,16.23-7.84,23.91-12.57A211.32,211.32,0,0,0,93,128c4.51-3.86,8.73-8,13.09-12.08l-.15-.43Z"/><path class="cls-2" d="M122.4,116.61s9.41,135.79,134.1,164.7"/><text class="cls-3" transform="translate(135.08 139.39) rotate(76.93)">행</text><text class="cls-3" transform="translate(138.64 154.56) rotate(72.75)">운</text><text class="cls-3" transform="translate(143.25 169.36) rotate(68.88)">의</text><text class="cls-3" transform="matrix(0.4, 0.92, -0.92, 0.4, 148.9, 183.63)"> </text><text class="cls-3" transform="translate(150.5 187.59) rotate(63.67)">추</text><text class="cls-3" transform="matrix(0.51, 0.86, -0.86, 0.51, 157.46, 201.61)">첨</text><text class="cls-3" transform="matrix(0.59, 0.81, -0.81, 0.59, 165.55, 215.08)">에</text><text class="cls-3" transform="translate(174.82 227.46) rotate(50.25)"> </text><text class="cls-3" transform="matrix(0.69, 0.72, -0.72, 0.69, 177.53, 230.99)">당</text><text class="cls-3" transform="translate(188.56 242.49) rotate(39.56)">첨</text><text class="cls-3" transform="matrix(0.82, 0.57, -0.57, 0.82, 200.78, 252.28)">!</text></g></g></svg>